<svg version="1.1" xmlns="http://www.w3.org/2000/svg" xmlns:xlink="http://www.w3.org/1999/xlink" width="876.4326171875" height="620"><defs/><g><text fill="#eeeeee" stroke="none" font-family="Arial" font-size="24px" font-style="normal" font-weight="normal" text-decoration="none" x="0" y="0">UNREGISTERED</text><text fill="#eeeeee" stroke="none" font-family="Arial" font-size="24px" font-style="normal" font-weight="normal" text-decoration="none" x="0" y="30">UNREGISTERED</text><text fill="#eeeeee" stroke="none" font-family="Arial" font-size="24px" font-style="normal" font-weight="normal" text-decoration="none" x="0" y="60">UNREGISTERED</text><text fill="#eeeeee" stroke="none" font-family="Arial" font-size="24px" font-style="normal" font-weight="normal" text-decoration="none" x="0" y="90">UNREGISTERED</text><text fill="#eeeeee" stroke="none" font-family="Arial" font-size="24px" font-style="normal" font-weight="normal" text-decoration="none" x="0" y="120">UNREGISTERED</text><text fill="#eeeeee" stroke="none" font-family="Arial" font-size="24px" font-style="normal" font-weight="normal" text-decoration="none" x="0" y="150">UNREGISTERED</text><text fill="#eeeeee" stroke="none" font-family="Arial" font-size="24px" font-style="normal" font-weight="normal" text-decoration="none" x="0" y="180">UNREGISTERED</text><text fill="#eeeeee" stroke="none" font-family="Arial" font-size="24px" font-style="normal" font-weight="normal" text-decoration="none" x="0" y="210">UNREGISTERED</text><text fill="#eeeeee" stroke="none" font-family="Arial" font-size="24px" font-style="normal" font-weight="normal" text-decoration="none" x="0" y="240">UNREGISTERED</text><text fill="#eeeeee" stroke="none" font-family="Arial" font-size="24px" font-style="normal" font-weight="normal" text-decoration="none" x="0" y="270">UNREGISTERED</text><text fill="#eeeeee" stroke="none" font-family="Arial" font-size="24px" font-style="normal" font-weight="normal" text-decoration="none" x="0" y="300">UNREGISTERED</text><text fill="#eeeeee" stroke="none" font-family="Arial" font-size="24px" font-style="normal" font-weight="normal" text-decoration="none" x="0" y="330">UNREGISTERED</text><text fill="#eeeeee" stroke="none" font-family="Arial" font-size="24px" font-style="normal" font-weight="normal" text-decoration="none" x="0" y="360">UNREGISTERED</text><text fill="#eeeeee" stroke="none" font-family="Arial" font-size="24px" font-style="normal" font-weight="normal" text-decoration="none" x="0" y="390">UNREGISTERED</text><text fill="#eeeeee" stroke="none" font-family="Arial" font-size="24px" font-style="normal" font-weight="normal" text-decoration="none" x="0" y="420">UNREGISTERED</text><text fill="#eeeeee" stroke="none" font-family="Arial" font-size="24px" font-style="normal" font-weight="normal" text-decoration="none" x="0" y="450">UNREGISTERED</text><text fill="#eeeeee" stroke="none" font-family="Arial" font-size="24px" font-style="normal" font-weight="normal" text-decoration="none" x="0" y="480">UNREGISTERED</text><text fill="#eeeeee" stroke="none" font-family="Arial" font-size="24px" font-style="normal" font-weight="normal" text-decoration="none" x="0" y="510">UNREGISTERED</text><text fill="#eeeeee" stroke="none" font-family="Arial" font-size="24px" font-style="normal" font-weight="normal" text-decoration="none" x="0" y="540">UNREGISTERED</text><text fill="#eeeeee" stroke="none" font-family="Arial" font-size="24px" font-style="normal" font-weight="normal" text-decoration="none" x="0" y="570">UNREGISTERED</text><text fill="#eeeeee" stroke="none" font-family="Arial" font-size="24px" font-style="normal" font-weight="normal" text-decoration="none" x="0" y="600">UNREGISTERED</text><text fill="#eeeeee" stroke="none" font-family="Arial" font-size="24px" font-style="normal" font-weight="normal" text-decoration="none" x="200" y="0">UNREGISTERED</text><text fill="#eeeeee" stroke="none" font-family="Arial" font-size="24px" font-style="normal" font-weight="normal" text-decoration="none" x="200" y="30">UNREGISTERED</text><text fill="#eeeeee" stroke="none" font-family="Arial" font-size="24px" font-style="normal" font-weight="normal" text-decoration="none" x="200" y="60">UNREGISTERED</text><text fill="#eeeeee" stroke="none" font-family="Arial" font-size="24px" font-style="normal" font-weight="normal" text-decoration="none" x="200" y="90">UNREGISTERED</text><text fill="#eeeeee" stroke="none" font-family="Arial" font-size="24px" font-style="normal" font-weight="normal" text-decoration="none" x="200" y="120">UNREGISTERED</text><text fill="#eeeeee" stroke="none" font-family="Arial" font-size="24px" font-style="normal" font-weight="normal" text-decoration="none" x="200" y="150">UNREGISTERED</text><text fill="#eeeeee" stroke="none" font-family="Arial" font-size="24px" font-style="normal" font-weight="normal" text-decoration="none" x="200" y="180">UNREGISTERED</text><text fill="#eeeeee" stroke="none" font-family="Arial" font-size="24px" font-style="normal" font-weight="normal" text-decoration="none" x="200" y="210">UNREGISTERED</text><text fill="#eeeeee" stroke="none" font-family="Arial" font-size="24px" font-style="normal" font-weight="normal" text-decoration="none" x="200" y="240">UNREGISTERED</text><text fill="#eeeeee" stroke="none" font-family="Arial" font-size="24px" font-style="normal" font-weight="normal" text-decoration="none" x="200" y="270">UNREGISTERED</text><text fill="#eeeeee" stroke="none" font-family="Arial" font-size="24px" font-style="normal" font-weight="normal" text-decoration="none" x="200" y="300">UNREGISTERED</text><text fill="#eeeeee" stroke="none" font-family="Arial" font-size="24px" font-style="normal" font-weight="normal" text-decoration="none" x="200" y="330">UNREGISTERED</text><text fill="#eeeeee" stroke="none" font-family="Arial" font-size="24px" font-style="normal" font-weight="normal" text-decoration="none" x="200" y="360">UNREGISTERED</text><text fill="#eeeeee" stroke="none" font-family="Arial" font-size="24px" font-style="normal" font-weight="normal" text-decoration="none" x="200" y="390">UNREGISTERED</text><text fill="#eeeeee" stroke="none" font-family="Arial" font-size="24px" font-style="normal" font-weight="normal" text-decoration="none" x="200" y="420">UNREGISTERED</text><text fill="#eeeeee" stroke="none" font-family="Arial" font-size="24px" font-style="normal" font-weight="normal" text-decoration="none" x="200" y="450">UNREGISTERED</text><text fill="#eeeeee" stroke="none" font-family="Arial" font-size="24px" font-style="normal" font-weight="normal" text-decoration="none" x="200" y="480">UNREGISTERED</text><text fill="#eeeeee" stroke="none" font-family="Arial" font-size="24px" font-style="normal" font-weight="normal" text-decoration="none" x="200" y="510">UNREGISTERED</text><text fill="#eeeeee" stroke="none" font-family="Arial" font-size="24px" font-style="normal" font-weight="normal" text-decoration="none" x="200" y="540">UNREGISTERED</text><text fill="#eeeeee" stroke="none" font-family="Arial" font-size="24px" font-style="normal" font-weight="normal" text-decoration="none" x="200" y="570">UNREGISTERED</text><text fill="#eeeeee" stroke="none" font-family="Arial" font-size="24px" font-style="normal" font-weight="normal" text-decoration="none" x="200" y="600">UNREGISTERED</text><text fill="#eeeeee" stroke="none" font-family="Arial" font-size="24px" font-style="normal" font-weight="normal" text-decoration="none" x="400" y="0">UNREGISTERED</text><text fill="#eeeeee" stroke="none" font-family="Arial" font-size="24px" font-style="normal" font-weight="normal" text-decoration="none" x="400" y="30">UNREGISTERED</text><text fill="#eeeeee" stroke="none" font-family="Arial" font-size="24px" font-style="normal" font-weight="normal" text-decoration="none" x="400" y="60">UNREGISTERED</text><text fill="#eeeeee" stroke="none" font-family="Arial" font-size="24px" font-style="normal" font-weight="normal" text-decoration="none" x="400" y="90">UNREGISTERED</text><text fill="#eeeeee" stroke="none" font-family="Arial" font-size="24px" font-style="normal" font-weight="normal" text-decoration="none" x="400" y="120">UNREGISTERED</text><text fill="#eeeeee" stroke="none" font-family="Arial" font-size="24px" font-style="normal" font-weight="normal" text-decoration="none" x="400" y="150">UNREGISTERED</text><text fill="#eeeeee" stroke="none" font-family="Arial" font-size="24px" font-style="normal" font-weight="normal" text-decoration="none" x="400" y="180">UNREGISTERED</text><text fill="#eeeeee" stroke="none" font-family="Arial" font-size="24px" font-style="normal" font-weight="normal" text-decoration="none" x="400" y="210">UNREGISTERED</text><text fill="#eeeeee" stroke="none" font-family="Arial" font-size="24px" font-style="normal" font-weight="normal" text-decoration="none" x="400" y="240">UNREGISTERED</text><text fill="#eeeeee" stroke="none" font-family="Arial" font-size="24px" font-style="normal" font-weight="normal" text-decoration="none" x="400" y="270">UNREGISTERED</text><text fill="#eeeeee" stroke="none" font-family="Arial" font-size="24px" font-style="normal" font-weight="normal" text-decoration="none" x="400" y="300">UNREGISTERED</text><text fill="#eeeeee" stroke="none" font-family="Arial" font-size="24px" font-style="normal" font-weight="normal" text-decoration="none" x="400" y="330">UNREGISTERED</text><text fill="#eeeeee" stroke="none" font-family="Arial" font-size="24px" font-style="normal" font-weight="normal" text-decoration="none" x="400" y="360">UNREGISTERED</text><text fill="#eeeeee" stroke="none" font-family="Arial" font-size="24px" font-style="normal" font-weight="normal" text-decoration="none" x="400" y="390">UNREGISTERED</text><text fill="#eeeeee" stroke="none" font-family="Arial" font-size="24px" font-style="normal" font-weight="normal" text-decoration="none" x="400" y="420">UNREGISTERED</text><text fill="#eeeeee" stroke="none" font-family="Arial" font-size="24px" font-style="normal" font-weight="normal" text-decoration="none" x="400" y="450">UNREGISTERED</text><text fill="#eeeeee" stroke="none" font-family="Arial" font-size="24px" font-style="normal" font-weight="normal" text-decoration="none" x="400" y="480">UNREGISTERED</text><text fill="#eeeeee" stroke="none" font-family="Arial" font-size="24px" font-style="normal" font-weight="normal" text-decoration="none" x="400" y="510">UNREGISTERED</text><text fill="#eeeeee" stroke="none" font-family="Arial" font-size="24px" font-style="normal" font-weight="normal" text-decoration="none" x="400" y="540">UNREGISTERED</text><text fill="#eeeeee" stroke="none" font-family="Arial" font-size="24px" font-style="normal" font-weight="normal" text-decoration="none" x="400" y="570">UNREGISTERED</text><text fill="#eeeeee" stroke="none" font-family="Arial" font-size="24px" font-style="normal" font-weight="normal" text-decoration="none" x="400" y="600">UNREGISTERED</text><text fill="#eeeeee" stroke="none" font-family="Arial" font-size="24px" font-style="normal" font-weight="normal" text-decoration="none" x="600" y="0">UNREGISTERED</text><text fill="#eeeeee" stroke="none" font-family="Arial" font-size="24px" font-style="normal" font-weight="normal" text-decoration="none" x="600" y="30">UNREGISTERED</text><text fill="#eeeeee" stroke="none" font-family="Arial" font-size="24px" font-style="normal" font-weight="normal" text-decoration="none" x="600" y="60">UNREGISTERED</text><text fill="#eeeeee" stroke="none" font-family="Arial" font-size="24px" font-style="normal" font-weight="normal" text-decoration="none" x="600" y="90">UNREGISTERED</text><text fill="#eeeeee" stroke="none" font-family="Arial" font-size="24px" font-style="normal" font-weight="normal" text-decoration="none" x="600" y="120">UNREGISTERED</text><text fill="#eeeeee" stroke="none" font-family="Arial" font-size="24px" font-style="normal" font-weight="normal" text-decoration="none" x="600" y="150">UNREGISTERED</text><text fill="#eeeeee" stroke="none" font-family="Arial" font-size="24px" font-style="normal" font-weight="normal" text-decoration="none" x="600" y="180">UNREGISTERED</text><text fill="#eeeeee" stroke="none" font-family="Arial" font-size="24px" font-style="normal" font-weight="normal" text-decoration="none" x="600" y="210">UNREGISTERED</text><text fill="#eeeeee" stroke="none" font-family="Arial" font-size="24px" font-style="normal" font-weight="normal" text-decoration="none" x="600" y="240">UNREGISTERED</text><text fill="#eeeeee" stroke="none" font-family="Arial" font-size="24px" font-style="normal" font-weight="normal" text-decoration="none" x="600" y="270">UNREGISTERED</text><text fill="#eeeeee" stroke="none" font-family="Arial" font-size="24px" font-style="normal" font-weight="normal" text-decoration="none" x="600" y="300">UNREGISTERED</text><text fill="#eeeeee" stroke="none" font-family="Arial" font-size="24px" font-style="normal" font-weight="normal" text-decoration="none" x="600" y="330">UNREGISTERED</text><text fill="#eeeeee" stroke="none" font-family="Arial" font-size="24px" font-style="normal" font-weight="normal" text-decoration="none" x="600" y="360">UNREGISTERED</text><text fill="#eeeeee" stroke="none" font-family="Arial" font-size="24px" font-style="normal" font-weight="normal" text-decoration="none" x="600" y="390">UNREGISTERED</text><text fill="#eeeeee" stroke="none" font-family="Arial" font-size="24px" font-style="normal" font-weight="normal" text-decoration="none" x="600" y="420">UNREGISTERED</text><text fill="#eeeeee" stroke="none" font-family="Arial" font-size="24px" font-style="normal" font-weight="normal" text-decoration="none" x="600" y="450">UNREGISTERED</text><text fill="#eeeeee" stroke="none" font-family="Arial" font-size="24px" font-style="normal" font-weight="normal" text-decoration="none" x="600" y="480">UNREGISTERED</text><text fill="#eeeeee" stroke="none" font-family="Arial" font-size="24px" font-style="normal" font-weight="normal" text-decoration="none" x="600" y="510">UNREGISTERED</text><text fill="#eeeeee" stroke="none" font-family="Arial" font-size="24px" font-style="normal" font-weight="normal" text-decoration="none" x="600" y="540">UNREGISTERED</text><text fill="#eeeeee" stroke="none" font-family="Arial" font-size="24px" font-style="normal" font-weight="normal" text-decoration="none" x="600" y="570">UNREGISTERED</text><text fill="#eeeeee" stroke="none" font-family="Arial" font-size="24px" font-style="normal" font-weight="normal" text-decoration="none" x="600" y="600">UNREGISTERED</text><text fill="#eeeeee" stroke="none" font-family="Arial" font-size="24px" font-style="normal" font-weight="normal" text-decoration="none" x="800" y="0">UNREGISTERED</text><text fill="#eeeeee" stroke="none" font-family="Arial" font-size="24px" font-style="normal" font-weight="normal" text-decoration="none" x="800" y="30">UNREGISTERED</text><text fill="#eeeeee" stroke="none" font-family="Arial" font-size="24px" font-style="normal" font-weight="normal" text-decoration="none" x="800" y="60">UNREGISTERED</text><text fill="#eeeeee" stroke="none" font-family="Arial" font-size="24px" font-style="normal" font-weight="normal" text-decoration="none" x="800" y="90">UNREGISTERED</text><text fill="#eeeeee" stroke="none" font-family="Arial" font-size="24px" font-style="normal" font-weight="normal" text-decoration="none" x="800" y="120">UNREGISTERED</text><text fill="#eeeeee" stroke="none" font-family="Arial" font-size="24px" font-style="normal" font-weight="normal" text-decoration="none" x="800" y="150">UNREGISTERED</text><text fill="#eeeeee" stroke="none" font-family="Arial" font-size="24px" font-style="normal" font-weight="normal" text-decoration="none" x="800" y="180">UNREGISTERED</text><text fill="#eeeeee" stroke="none" font-family="Arial" font-size="24px" font-style="normal" font-weight="normal" text-decoration="none" x="800" y="210">UNREGISTERED</text><text fill="#eeeeee" stroke="none" font-family="Arial" font-size="24px" font-style="normal" font-weight="normal" text-decoration="none" x="800" y="240">UNREGISTERED</text><text fill="#eeeeee" stroke="none" font-family="Arial" font-size="24px" font-style="normal" font-weight="normal" text-decoration="none" x="800" y="270">UNREGISTERED</text><text fill="#eeeeee" stroke="none" font-family="Arial" font-size="24px" font-style="normal" font-weight="normal" text-decoration="none" x="800" y="300">UNREGISTERED</text><text fill="#eeeeee" stroke="none" font-family="Arial" font-size="24px" font-style="normal" font-weight="normal" text-decoration="none" x="800" y="330">UNREGISTERED</text><text fill="#eeeeee" stroke="none" font-family="Arial" font-size="24px" font-style="normal" font-weight="normal" text-decoration="none" x="800" y="360">UNREGISTERED</text><text fill="#eeeeee" stroke="none" font-family="Arial" font-size="24px" font-style="normal" font-weight="normal" text-decoration="none" x="800" y="390">UNREGISTERED</text><text fill="#eeeeee" stroke="none" font-family="Arial" font-size="24px" font-style="normal" font-weight="normal" text-decoration="none" x="800" y="420">UNREGISTERED</text><text fill="#eeeeee" stroke="none" font-family="Arial" font-size="24px" font-style="normal" font-weight="normal" text-decoration="none" x="800" y="450">UNREGISTERED</text><text fill="#eeeeee" stroke="none" font-family="Arial" font-size="24px" font-style="normal" font-weight="normal" text-decoration="none" x="800" y="480">UNREGISTERED</text><text fill="#eeeeee" stroke="none" font-family="Arial" font-size="24px" font-style="normal" font-weight="normal" text-decoration="none" x="800" y="510">UNREGISTERED</text><text fill="#eeeeee" stroke="none" font-family="Arial" font-size="24px" font-style="normal" font-weight="normal" text-decoration="none" x="800" y="540">UNREGISTERED</text><text fill="#eeeeee" stroke="none" font-family="Arial" font-size="24px" font-style="normal" font-weight="normal" text-decoration="none" x="800" y="570">UNREGISTERED</text><text fill="#eeeeee" stroke="none" font-family="Arial" font-size="24px" font-style="normal" font-weight="normal" text-decoration="none" x="800" y="600">UNREGISTERED</text><g transform="translate(-230,-30) scale(1,1)"><rect fill="#C0C0C0" stroke="none" x="327" y="47" width="647" height="600" opacity="0.2"/></g><g transform="translate(-230,-30) scale(1,1)"><rect fill="#ffffff" stroke="none" x="320" y="40" width="647" height="600"/></g><g transform="translate(-230,-30) scale(1,1)"><path fill="none" stroke="#000000" d="M 320 40 L 967 40 L 967 640 L 320 640 L 320 40 Z Z" stroke-miterlimit="10"/></g><g transform="translate(-230,-30) scale(1,1)"><g><path fill="none" stroke="none"/><text fill="#000000" stroke="none" font-family="Arial" font-size="13px" font-style="normal" font-weight="bold" text-decoration="none" x="604.8427734375" y="59.5">Royal Casino</text></g></g><g transform="translate(-230,-30) scale(1,1)"><path fill="#ffffff" stroke="none" d="M 256.40935031960225 361.68 C 256.40935031960225 356.886167936 260.29519264454774 353 265.088623046875 353 C 269.88205344920226 353 273.76789577414775 356.886167936 273.76789577414775 361.68 C 273.76789577414775 366.473832064 269.88205344920226 370.36 265.088623046875 370.36 C 260.29519264454774 370.36 256.40935031960225 366.473832064 256.40935031960225 361.68 Z"/></g><g transform="translate(-230,-30) scale(1,1)"><path fill="none" stroke="#000000" d="M 256.40935031960225 361.68 C 256.40935031960225 356.886167936 260.29519264454774 353 265.088623046875 353 C 269.88205344920226 353 273.76789577414775 356.886167936 273.76789577414775 361.68 C 273.76789577414775 366.473832064 269.88205344920226 370.36 265.088623046875 370.36 C 260.29519264454774 370.36 256.40935031960225 366.473832064 256.40935031960225 361.68 Z" stroke-miterlimit="10"/></g><g transform="translate(-230,-30) scale(1,1)"><path fill="none" stroke="#000000" d="M 265.088623046875 370.36 L 265.088623046875 387.64" stroke-miterlimit="10"/></g><g transform="translate(-230,-30) scale(1,1)"><path fill="none" stroke="#000000" d="M 255.89880486505683 376.84 L 274.27844122869317 376.84" stroke-miterlimit="10"/></g><g transform="translate(-230,-30) scale(1,1)"><path fill="none" stroke="#000000" d="M 265.088623046875 387.64 L 252.32498668323865 405" stroke-miterlimit="10"/></g><g transform="translate(-230,-30) scale(1,1)"><path fill="none" stroke="#000000" d="M 265.088623046875 387.64 L 277.85225941051135 405" stroke-miterlimit="10"/></g><g transform="translate(-230,-30) scale(1,1)"><g><path fill="none" stroke="none"/><text fill="#000000" stroke="none" font-family="Arial" font-size="13px" font-style="normal" font-weight="bold" text-decoration="none" x="251.364990234375" y="425.5">User</text></g></g><g transform="translate(-230,-30) scale(1,1)"><path fill="#ffffff" stroke="none" d="M 1039.5370358664773 353.68 C 1039.5370358664773 348.886167936 1043.4228781914228 345 1048.21630859375 345 C 1053.0097389960772 345 1056.8955813210227 348.886167936 1056.8955813210227 353.68 C 1056.8955813210227 358.473832064 1053.0097389960772 362.36 1048.21630859375 362.36 C 1043.4228781914228 362.36 1039.5370358664773 358.473832064 1039.5370358664773 353.68 Z"/></g><g transform="translate(-230,-30) scale(1,1)"><path fill="none" stroke="#000000" d="M 1039.5370358664773 353.68 C 1039.5370358664773 348.886167936 1043.4228781914228 345 1048.21630859375 345 C 1053.0097389960772 345 1056.8955813210227 348.886167936 1056.8955813210227 353.68 C 1056.8955813210227 358.473832064 1053.0097389960772 362.36 1048.21630859375 362.36 C 1043.4228781914228 362.36 1039.5370358664773 358.473832064 1039.5370358664773 353.68 Z" stroke-miterlimit="10"/></g><g transform="translate(-230,-30) scale(1,1)"><path fill="none" stroke="#000000" d="M 1048.21630859375 362.36 L 1048.21630859375 379.64" stroke-miterlimit="10"/></g><g transform="translate(-230,-30) scale(1,1)"><path fill="none" stroke="#000000" d="M 1039.0264904119317 368.84 L 1057.4061267755683 368.84" stroke-miterlimit="10"/></g><g transform="translate(-230,-30) scale(1,1)"><path fill="none" stroke="#000000" d="M 1048.21630859375 379.64 L 1035.4526722301136 397" stroke-miterlimit="10"/></g><g transform="translate(-230,-30) scale(1,1)"><path fill="none" stroke="#000000" d="M 1048.21630859375 379.64 L 1060.9799449573864 397" stroke-miterlimit="10"/></g><g transform="translate(-230,-30) scale(1,1)"><g><path fill="none" stroke="none"/><text fill="#000000" stroke="none" font-family="Arial" font-size="13px" font-style="normal" font-weight="bold" text-decoration="none" x="1007.03271484375" y="417.5">Casino Server</text></g></g><g transform="translate(-230,-30) scale(1,1)"><path fill="#C0C0C0" stroke="none" d="M 447 160 C 447 150.6111584 469.6096176 143 497.5 143 C 525.3903824 143 548 150.6111584 548 160 C 548 169.3888416 525.3903824 177 497.5 177 C 469.6096176 177 447 169.3888416 447 160 Z" opacity="0.2"/></g><g transform="translate(-230,-30) scale(1,1)"><path fill="#ffffff" stroke="none" d="M 440 153 C 440 143.6111584 462.6096176 136 490.5 136 C 518.3903824 136 541 143.6111584 541 153 C 541 162.3888416 518.3903824 170 490.5 170 C 462.6096176 170 440 162.3888416 440 153 Z"/></g><g transform="translate(-230,-30) scale(1,1)"><path fill="none" stroke="#000000" d="M 440 153 C 440 143.6111584 462.6096176 136 490.5 136 C 518.3903824 136 541 143.6111584 541 153 C 541 162.3888416 518.3903824 170 490.5 170 C 462.6096176 170 440 162.3888416 440 153 Z" stroke-miterlimit="10"/></g><g transform="translate(-230,-30) scale(1,1)"><g><path fill="none" stroke="none"/><text fill="#000000" stroke="none" font-family="Arial" font-size="13px" font-style="normal" font-weight="bold" text-decoration="none" x="474.595947265625" y="160">Login</text></g></g><g transform="translate(-230,-30) scale(1,1)"><path fill="#C0C0C0" stroke="none" d="M 447 248 C 447 238.6111584 469.6096176 231 497.5 231 C 525.3903824 231 548 238.6111584 548 248 C 548 257.3888416 525.3903824 265 497.5 265 C 469.6096176 265 447 257.3888416 447 248 Z" opacity="0.2"/></g><g transform="translate(-230,-30) scale(1,1)"><path fill="#ffffff" stroke="none" d="M 440 241 C 440 231.6111584 462.6096176 224 490.5 224 C 518.3903824 224 541 231.6111584 541 241 C 541 250.3888416 518.3903824 258 490.5 258 C 462.6096176 258 440 250.3888416 440 241 Z"/></g><g transform="translate(-230,-30) scale(1,1)"><path fill="none" stroke="#000000" d="M 440 241 C 440 231.6111584 462.6096176 224 490.5 224 C 518.3903824 224 541 231.6111584 541 241 C 541 250.3888416 518.3903824 258 490.5 258 C 462.6096176 258 440 250.3888416 440 241 Z" stroke-miterlimit="10"/></g><g transform="translate(-230,-30) scale(1,1)"><g><path fill="none" stroke="none"/><text fill="#000000" stroke="none" font-family="Arial" font-size="13px" font-style="normal" font-weight="bold" text-decoration="none" x="464.1318359375" y="248">Registrer</text></g></g><g transform="translate(-230,-30) scale(1,1)"><path fill="#C0C0C0" stroke="none" d="M 439 400 C 439 390.6111584 480.413656 383 531.5 383 C 582.586344 383 624 390.6111584 624 400 C 624 409.3888416 582.586344 417 531.5 417 C 480.413656 417 439 409.3888416 439 400 Z" opacity="0.2"/></g><g transform="translate(-230,-30) scale(1,1)"><path fill="#ffffff" stroke="none" d="M 432 393 C 432 383.6111584 473.413656 376 524.5 376 C 575.586344 376 617 383.6111584 617 393 C 617 402.3888416 575.586344 410 524.5 410 C 473.413656 410 432 402.3888416 432 393 Z"/></g><g transform="translate(-230,-30) scale(1,1)"><path fill="none" stroke="#000000" d="M 432 393 C 432 383.6111584 473.413656 376 524.5 376 C 575.586344 376 617 383.6111584 617 393 C 617 402.3888416 575.586344 410 524.5 410 C 473.413656 410 432 402.3888416 432 393 Z" stroke-miterlimit="10"/></g><g transform="translate(-230,-30) scale(1,1)"><g><path fill="none" stroke="none"/><text fill="#000000" stroke="none" font-family="Arial" font-size="13px" font-style="normal" font-weight="bold" text-decoration="none" x="468.142333984375" y="400">Personalisere Profil</text></g></g><g transform="translate(-230,-30) scale(1,1)"><path fill="#C0C0C0" stroke="none" d="M 479 472 C 479 462.6111584 502.7289056 455 532 455 C 561.2710944 455 585 462.6111584 585 472 C 585 481.3888416 561.2710944 489 532 489 C 502.7289056 489 479 481.3888416 479 472 Z" opacity="0.2"/></g><g transform="translate(-230,-30) scale(1,1)"><path fill="#ffffff" stroke="none" d="M 472 465 C 472 455.6111584 495.7289056 448 525 448 C 554.2710944 448 578 455.6111584 578 465 C 578 474.3888416 554.2710944 482 525 482 C 495.7289056 482 472 474.3888416 472 465 Z"/></g><g transform="translate(-230,-30) scale(1,1)"><path fill="none" stroke="#000000" d="M 472 465 C 472 455.6111584 495.7289056 448 525 448 C 554.2710944 448 578 455.6111584 578 465 C 578 474.3888416 554.2710944 482 525 482 C 495.7289056 482 472 474.3888416 472 465 Z" stroke-miterlimit="10"/></g><g transform="translate(-230,-30) scale(1,1)"><g><path fill="none" stroke="none"/><text fill="#000000" stroke="none" font-family="Arial" font-size="13px" font-style="normal" font-weight="bold" text-decoration="none" x="495.013671875" y="472">Spille Spill</text></g></g><g transform="translate(-230,-30) scale(1,1)"><path fill="none" stroke="#000000" d="M 291 363 L 473 171" stroke-miterlimit="10"/></g><g transform="translate(-230,-30) scale(1,1)"><path fill="#C0C0C0" stroke="none" d="M 615 128 C 615 118.6111584 640.0720512 111 671 111 C 701.9279488 111 727 118.6111584 727 128 C 727 137.3888416 701.9279488 145 671 145 C 640.0720512 145 615 137.3888416 615 128 Z" opacity="0.2"/></g><g transform="translate(-230,-30) scale(1,1)"><path fill="#ffffff" stroke="none" d="M 608 121 C 608 111.6111584 633.0720512 104 664 104 C 694.9279488 104 720 111.6111584 720 121 C 720 130.3888416 694.9279488 138 664 138 C 633.0720512 138 608 130.3888416 608 121 Z"/></g><g transform="translate(-230,-30) scale(1,1)"><path fill="none" stroke="#000000" d="M 608 121 C 608 111.6111584 633.0720512 104 664 104 C 694.9279488 104 720 111.6111584 720 121 C 720 130.3888416 694.9279488 138 664 138 C 633.0720512 138 608 130.3888416 608 121 Z" stroke-miterlimit="10"/></g><g transform="translate(-230,-30) scale(1,1)"><g><path fill="none" stroke="none"/><text fill="#000000" stroke="none" font-family="Arial" font-size="13px" font-style="normal" font-weight="bold" text-decoration="none" x="632.56640625" y="128">verifyLogin</text></g></g><g transform="translate(-230,-30) scale(1,1)"><path fill="none" stroke="#000000" d="M 542 143 L 607 131" stroke-miterlimit="10" stroke-dasharray="3"/></g><g transform="translate(-230,-30) scale(1,1)"><path fill="none" stroke="#000000" d="M 597.7704339782736 136.98457275422334 L 607 131 L 596.2419793016127 128.70544325564384" stroke-miterlimit="10"/></g><g transform="translate(-230,-30) scale(1,1)"><g><path fill="none" stroke="none"/><text fill="#000000" stroke="none" font-family="Arial" font-size="13px" font-style="normal" font-weight="normal" text-decoration="none" x="527.5" y="123.5">«include»</text></g></g><g transform="translate(-230,-30) scale(1,1)"><path fill="#C0C0C0" stroke="none" d="M 631 203 C 631 191.954304 670.17508 183 718.5 183 C 766.82492 183 806 191.954304 806 203 C 806 214.045696 766.82492 223 718.5 223 C 670.17508 223 631 214.045696 631 203 Z" opacity="0.2"/></g><g transform="translate(-230,-30) scale(1,1)"><path fill="#ffffff" stroke="none" d="M 624 196 C 624 184.954304 663.17508 176 711.5 176 C 759.82492 176 799 184.954304 799 196 C 799 207.045696 759.82492 216 711.5 216 C 663.17508 216 624 207.045696 624 196 Z"/></g><g transform="translate(-230,-30) scale(1,1)"><path fill="none" stroke="#000000" d="M 624 196 C 624 184.954304 663.17508 176 711.5 176 C 759.82492 176 799 184.954304 799 196 C 799 207.045696 759.82492 216 711.5 216 C 663.17508 216 624 207.045696 624 196 Z" stroke-miterlimit="10"/></g><g transform="translate(-230,-30) scale(1,1)"><g><path fill="none" stroke="none"/><text fill="#000000" stroke="none" font-family="Arial" font-size="13px" font-style="normal" font-weight="bold" text-decoration="none" x="674.658203125" y="203">Display error</text></g></g><g transform="translate(-230,-30) scale(1,1)"><path fill="none" stroke="#000000" d="M 623 179 L 542 163" stroke-miterlimit="10" stroke-dasharray="3"/></g><g transform="translate(-230,-30) scale(1,1)"><path fill="none" stroke="#000000" d="M 552.7857759414609 160.8396673078892 L 542 163 L 551.1542812047762 169.0991094123552" stroke-miterlimit="10"/></g><g transform="translate(-230,-30) scale(1,1)"><g><path fill="none" stroke="none"/><text fill="#000000" stroke="none" font-family="Arial" font-size="13px" font-style="normal" font-weight="normal" text-decoration="none" x="541.5" y="191.5">+Login failed</text></g></g><g transform="translate(-230,-30) scale(1,1)"><g><path fill="none" stroke="none"/><text fill="#000000" stroke="none" font-family="Arial" font-size="13px" font-style="normal" font-weight="normal" text-decoration="none" x="548.5" y="206.5">«extend»</text></g></g><g transform="translate(-230,-30) scale(1,1)"><path fill="none" stroke="#000000" d="M 291 374 L 463 259" stroke-miterlimit="10"/></g><g transform="translate(-230,-30) scale(1,1)"><path fill="#C0C0C0" stroke="none" d="M 639 296 C 639 286.6111584 663.1766208 279 693 279 C 722.8233792 279 747 286.6111584 747 296 C 747 305.3888416 722.8233792 313 693 313 C 663.1766208 313 639 305.3888416 639 296 Z" opacity="0.2"/></g><g transform="translate(-230,-30) scale(1,1)"><path fill="#ffffff" stroke="none" d="M 632 289 C 632 279.6111584 656.1766208 272 686 272 C 715.8233792 272 740 279.6111584 740 289 C 740 298.3888416 715.8233792 306 686 306 C 656.1766208 306 632 298.3888416 632 289 Z"/></g><g transform="translate(-230,-30) scale(1,1)"><path fill="none" stroke="#000000" d="M 632 289 C 632 279.6111584 656.1766208 272 686 272 C 715.8233792 272 740 279.6111584 740 289 C 740 298.3888416 715.8233792 306 686 306 C 656.1766208 306 632 298.3888416 632 289 Z" stroke-miterlimit="10"/></g><g transform="translate(-230,-30) scale(1,1)"><g><path fill="none" stroke="none"/><text fill="#000000" stroke="none" font-family="Arial" font-size="13px" font-style="normal" font-weight="bold" text-decoration="none" x="655.305908203125" y="296">verifyForm</text></g></g><g transform="translate(-230,-30) scale(1,1)"><path fill="none" stroke="#000000" d="M 542 254 L 631 276" stroke-miterlimit="10" stroke-dasharray="3"/></g><g transform="translate(-230,-30) scale(1,1)"><path fill="none" stroke="#000000" d="M 620.1241203691088 277.6477992154281 L 631 276 L 622.144421762365 269.4747617608913" stroke-miterlimit="10"/></g><g transform="translate(-230,-30) scale(1,1)"><g><path fill="none" stroke="none"/><text fill="#000000" stroke="none" font-family="Arial" font-size="13px" font-style="normal" font-weight="normal" text-decoration="none" x="527.5" y="284.5">«include»</text></g></g><g transform="translate(-230,-30) scale(1,1)"><path fill="none" stroke="#000000" d="M 623 214 L 542 230" stroke-miterlimit="10" stroke-dasharray="3"/></g><g transform="translate(-230,-30) scale(1,1)"><path fill="none" stroke="#000000" d="M 551.1542812047762 223.9008905876448 L 542 230 L 552.7857759414609 232.1603326921108" stroke-miterlimit="10"/></g><g transform="translate(-230,-30) scale(1,1)"><g><path fill="none" stroke="none"/><text fill="#000000" stroke="none" font-family="Arial" font-size="13px" font-style="normal" font-weight="normal" text-decoration="none" x="589.5" y="252.5">+Brukernavn finnes allerede</text></g></g><g transform="translate(-230,-30) scale(1,1)"><g><path fill="none" stroke="none"/><text fill="#000000" stroke="none" font-family="Arial" font-size="13px" font-style="normal" font-weight="normal" text-decoration="none" x="591.5" y="235.5">«extend»</text></g></g><g transform="translate(-230,-30) scale(1,1)"><path fill="none" stroke="#000000" d="M 291 391 L 431 392" stroke-miterlimit="10"/></g><g transform="translate(-230,-30) scale(1,1)"><path fill="none" stroke="#000000" d="M 291 398 L 471 450" stroke-miterlimit="10"/></g><g transform="translate(-230,-30) scale(1,1)"><path fill="#C0C0C0" stroke="none" d="M 439 568 C 439 558.6111584 482.4283744 551 536 551 C 589.5716256000001 551 633 558.6111584 633 568 C 633 577.3888416 589.5716256000001 585 536 585 C 482.4283744 585 439 577.3888416 439 568 Z" opacity="0.2"/></g><g transform="translate(-230,-30) scale(1,1)"><path fill="#ffffff" stroke="none" d="M 432 561 C 432 551.6111584 475.4283744 544 529 544 C 582.5716256000001 544 626 551.6111584 626 561 C 626 570.3888416 582.5716256000001 578 529 578 C 475.4283744 578 432 570.3888416 432 561 Z"/></g><g transform="translate(-230,-30) scale(1,1)"><path fill="none" stroke="#000000" d="M 432 561 C 432 551.6111584 475.4283744 544 529 544 C 582.5716256000001 544 626 551.6111584 626 561 C 626 570.3888416 582.5716256000001 578 529 578 C 475.4283744 578 432 570.3888416 432 561 Z" stroke-miterlimit="10"/></g><g transform="translate(-230,-30) scale(1,1)"><g><path fill="none" stroke="none"/><text fill="#000000" stroke="none" font-family="Arial" font-size="13px" font-style="normal" font-weight="bold" text-decoration="none" x="498.648681640625" y="568">Se Tokens</text></g></g><g transform="translate(-230,-30) scale(1,1)"><path fill="none" stroke="#000000" d="M 291 408 L 501 543" stroke-miterlimit="10"/></g><g transform="translate(-230,-30) scale(1,1)"><path fill="#C0C0C0" stroke="none" d="M 671 432 C 671 422.6111584 694.505048 415 723.5 415 C 752.494952 415 776 422.6111584 776 432 C 776 441.3888416 752.494952 449 723.5 449 C 694.505048 449 671 441.3888416 671 432 Z" opacity="0.2"/></g><g transform="translate(-230,-30) scale(1,1)"><path fill="#ffffff" stroke="none" d="M 664 425 C 664 415.6111584 687.505048 408 716.5 408 C 745.494952 408 769 415.6111584 769 425 C 769 434.3888416 745.494952 442 716.5 442 C 687.505048 442 664 434.3888416 664 425 Z"/></g><g transform="translate(-230,-30) scale(1,1)"><path fill="none" stroke="#000000" d="M 664 425 C 664 415.6111584 687.505048 408 716.5 408 C 745.494952 408 769 415.6111584 769 425 C 769 434.3888416 745.494952 442 716.5 442 C 687.505048 442 664 434.3888416 664 425 Z" stroke-miterlimit="10"/></g><g transform="translate(-230,-30) scale(1,1)"><g><path fill="none" stroke="none"/><text fill="#000000" stroke="none" font-family="Arial" font-size="13px" font-style="normal" font-weight="bold" text-decoration="none" x="686.1455078125" y="432">Velge Spill</text></g></g><g transform="translate(-230,-30) scale(1,1)"><path fill="#C0C0C0" stroke="none" d="M 687 496 C 687 486.6111584 713.862912 479 747 479 C 780.137088 479 807 486.6111584 807 496 C 807 505.3888416 780.137088 513 747 513 C 713.862912 513 687 505.3888416 687 496 Z" opacity="0.2"/></g><g transform="translate(-230,-30) scale(1,1)"><path fill="#ffffff" stroke="none" d="M 680 489 C 680 479.6111584 706.862912 472 740 472 C 773.137088 472 800 479.6111584 800 489 C 800 498.3888416 773.137088 506 740 506 C 706.862912 506 680 498.3888416 680 489 Z"/></g><g transform="translate(-230,-30) scale(1,1)"><path fill="none" stroke="#000000" d="M 680 489 C 680 479.6111584 706.862912 472 740 472 C 773.137088 472 800 479.6111584 800 489 C 800 498.3888416 773.137088 506 740 506 C 706.862912 506 680 498.3888416 680 489 Z" stroke-miterlimit="10"/></g><g transform="translate(-230,-30) scale(1,1)"><g><path fill="none" stroke="none"/><text fill="#000000" stroke="none" font-family="Arial" font-size="13px" font-style="normal" font-weight="bold" text-decoration="none" x="703.62158203125" y="496">Vinne - Tape</text></g></g><g transform="translate(-230,-30) scale(1,1)"><path fill="none" stroke="#000000" d="M 579 454 L 663 436" stroke-miterlimit="10" stroke-dasharray="3"/></g><g transform="translate(-230,-30) scale(1,1)"><path fill="none" stroke="#000000" d="M 653.9449284101457 442.2454526259203 L 663 436 L 652.1808955713168 434.013299378052" stroke-miterlimit="10"/></g><g transform="translate(-230,-30) scale(1,1)"><g><path fill="none" stroke="none"/><text fill="#000000" stroke="none" font-family="Arial" font-size="13px" font-style="normal" font-weight="normal" text-decoration="none" x="575.5" y="440.5">«include»</text></g></g><g transform="translate(-230,-30) scale(1,1)"><path fill="none" stroke="#000000" d="M 687 507 L 582 543" stroke-miterlimit="10" stroke-dasharray="3"/></g><g transform="translate(-230,-30) scale(1,1)"><path fill="none" stroke="#000000" d="M 590.2480920795853 535.7220210877824 L 582 543 L 592.9785900834875 543.6859735991641" stroke-miterlimit="10"/></g><g transform="translate(-230,-30) scale(1,1)"><g><path fill="none" stroke="none"/><text fill="#000000" stroke="none" font-family="Arial" font-size="13px" font-style="normal" font-weight="normal" text-decoration="none" x="634.5" y="548.5">+Vinne eller tape tokens</text></g></g><g transform="translate(-230,-30) scale(1,1)"><g><path fill="none" stroke="none"/><text fill="#000000" stroke="none" font-family="Arial" font-size="13px" font-style="normal" font-weight="normal" text-decoration="none" x="641.5" y="536.5">«include»</text></g></g><g transform="translate(-230,-30) scale(1,1)"><path fill="none" stroke="#000000" d="M 579 471 L 679 482" stroke-miterlimit="10" stroke-dasharray="3"/></g><g transform="translate(-230,-30) scale(1,1)"><path fill="none" stroke="#000000" d="M 668.4379862351207 485.0730872474597 L 679 482 L 669.3585276120115 476.70452927572484" stroke-miterlimit="10"/></g><g transform="translate(-230,-30) scale(1,1)"><g><path fill="none" stroke="none"/><text fill="#000000" stroke="none" font-family="Arial" font-size="13px" font-style="normal" font-weight="normal" text-decoration="none" x="601.5" y="467.5">«include»</text></g></g><g transform="translate(-230,-30) scale(1,1)"><path fill="none" stroke="#000000" d="M 1012 343 L 824 136 L 721 126" stroke-miterlimit="10"/></g><g transform="translate(-230,-30) scale(1,1)"><path fill="none" stroke="#000000" d="M 1011 424 L 888 560 L 627 561" stroke-miterlimit="10"/></g><g transform="translate(-230,-30) scale(1,1)"><path fill="none" stroke="#000000" d="M 618 391 L 999 384" stroke-miterlimit="10"/></g><g transform="translate(-230,-30) scale(1,1)"><path fill="none" stroke="#000000" d="M 741 302 L 880 336 L 999 369" stroke-miterlimit="10"/></g><g transform="translate(-230,-30) scale(1,1)"><path fill="#C0C0C0" stroke="none" d="M 703 608 C 703 598.6111584 735.0116368 591 774.5 591 C 813.9883632 591 846 598.6111584 846 608 C 846 617.3888416 813.9883632 625 774.5 625 C 735.0116368 625 703 617.3888416 703 608 Z" opacity="0.2"/></g><g transform="translate(-230,-30) scale(1,1)"><path fill="#ffffff" stroke="none" d="M 696 601 C 696 591.6111584 728.0116368 584 767.5 584 C 806.9883632 584 839 591.6111584 839 601 C 839 610.3888416 806.9883632 618 767.5 618 C 728.0116368 618 696 610.3888416 696 601 Z"/></g><g transform="translate(-230,-30) scale(1,1)"><path fill="none" stroke="#000000" d="M 696 601 C 696 591.6111584 728.0116368 584 767.5 584 C 806.9883632 584 839 591.6111584 839 601 C 839 610.3888416 806.9883632 618 767.5 618 C 728.0116368 618 696 610.3888416 696 601 Z" stroke-miterlimit="10"/></g><g transform="translate(-230,-30) scale(1,1)"><g><path fill="none" stroke="none"/><text fill="#000000" stroke="none" font-family="Arial" font-size="13px" font-style="normal" font-weight="bold" text-decoration="none" x="724.13916015625" y="608">Update Tokens</text></g></g><g transform="translate(-230,-30) scale(1,1)"><path fill="none" stroke="#000000" d="M 627 577 L 695 589" stroke-miterlimit="10" stroke-dasharray="3"/></g><g transform="translate(-230,-30) scale(1,1)"><path fill="none" stroke="#000000" d="M 684.260412437774 591.3793400331355 L 695 589 L 685.7235173354246 583.088412279782" stroke-miterlimit="10"/></g><g transform="translate(-230,-30) scale(1,1)"><g><path fill="none" stroke="none"/><text fill="#000000" stroke="none" font-family="Arial" font-size="13px" font-style="normal" font-weight="normal" text-decoration="none" x="615.5" y="596.5">«include»</text></g></g><g transform="translate(-230,-30) scale(1,1)"><path fill="none" stroke="#000000" d="M 840 601 L 936 600 L 1027 424" stroke-miterlimit="10"/></g><g transform="translate(-230,-30) scale(1,1)"><path fill="#C0C0C0" stroke="none" d="M 471 336 C 471 326.6111584 493.6096176 319 521.5 319 C 549.3903824 319 572 326.6111584 572 336 C 572 345.3888416 549.3903824 353 521.5 353 C 493.6096176 353 471 345.3888416 471 336 Z" opacity="0.2"/></g><g transform="translate(-230,-30) scale(1,1)"><path fill="#ffffff" stroke="none" d="M 464 329 C 464 319.6111584 486.6096176 312 514.5 312 C 542.3903824 312 565 319.6111584 565 329 C 565 338.3888416 542.3903824 346 514.5 346 C 486.6096176 346 464 338.3888416 464 329 Z"/></g><g transform="translate(-230,-30) scale(1,1)"><path fill="none" stroke="#000000" d="M 464 329 C 464 319.6111584 486.6096176 312 514.5 312 C 542.3903824 312 565 319.6111584 565 329 C 565 338.3888416 542.3903824 346 514.5 346 C 486.6096176 346 464 338.3888416 464 329 Z" stroke-miterlimit="10"/></g><g transform="translate(-230,-30) scale(1,1)"><g><path fill="none" stroke="none"/><text fill="#000000" stroke="none" font-family="Arial" font-size="13px" font-style="normal" font-weight="bold" text-decoration="none" x="498.234130859375" y="336">Logut</text></g></g><g transform="translate(-230,-30) scale(1,1)"><path fill="none" stroke="#000000" d="M 291 384 L 463 342" stroke-miterlimit="10"/></g><g transform="translate(-230,-30) scale(1,1)"><path fill="none" stroke="#000000" d="M 566 330 L 808 336 L 999 373" stroke-miterlimit="10"/></g></g></svg>