<svg version="1.1" xmlns="http://www.w3.org/2000/svg" xmlns:xlink="http://www.w3.org/1999/xlink" width="525" height="595"><defs/><g><text fill="#eeeeee" stroke="none" font-family="Arial" font-size="24px" font-style="normal" font-weight="normal" text-decoration="none" x="0" y="0">UNREGISTERED</text><text fill="#eeeeee" stroke="none" font-family="Arial" font-size="24px" font-style="normal" font-weight="normal" text-decoration="none" x="0" y="30">UNREGISTERED</text><text fill="#eeeeee" stroke="none" font-family="Arial" font-size="24px" font-style="normal" font-weight="normal" text-decoration="none" x="0" y="60">UNREGISTERED</text><text fill="#eeeeee" stroke="none" font-family="Arial" font-size="24px" font-style="normal" font-weight="normal" text-decoration="none" x="0" y="90">UNREGISTERED</text><text fill="#eeeeee" stroke="none" font-family="Arial" font-size="24px" font-style="normal" font-weight="normal" text-decoration="none" x="0" y="120">UNREGISTERED</text><text fill="#eeeeee" stroke="none" font-family="Arial" font-size="24px" font-style="normal" font-weight="normal" text-decoration="none" x="0" y="150">UNREGISTERED</text><text fill="#eeeeee" stroke="none" font-family="Arial" font-size="24px" font-style="normal" font-weight="normal" text-decoration="none" x="0" y="180">UNREGISTERED</text><text fill="#eeeeee" stroke="none" font-family="Arial" font-size="24px" font-style="normal" font-weight="normal" text-decoration="none" x="0" y="210">UNREGISTERED</text><text fill="#eeeeee" stroke="none" font-family="Arial" font-size="24px" font-style="normal" font-weight="normal" text-decoration="none" x="0" y="240">UNREGISTERED</text><text fill="#eeeeee" stroke="none" font-family="Arial" font-size="24px" font-style="normal" font-weight="normal" text-decoration="none" x="0" y="270">UNREGISTERED</text><text fill="#eeeeee" stroke="none" font-family="Arial" font-size="24px" font-style="normal" font-weight="normal" text-decoration="none" x="0" y="300">UNREGISTERED</text><text fill="#eeeeee" stroke="none" font-family="Arial" font-size="24px" font-style="normal" font-weight="normal" text-decoration="none" x="0" y="330">UNREGISTERED</text><text fill="#eeeeee" stroke="none" font-family="Arial" font-size="24px" font-style="normal" font-weight="normal" text-decoration="none" x="0" y="360">UNREGISTERED</text><text fill="#eeeeee" stroke="none" font-family="Arial" font-size="24px" font-style="normal" font-weight="normal" text-decoration="none" x="0" y="390">UNREGISTERED</text><text fill="#eeeeee" stroke="none" font-family="Arial" font-size="24px" font-style="normal" font-weight="normal" text-decoration="none" x="0" y="420">UNREGISTERED</text><text fill="#eeeeee" stroke="none" font-family="Arial" font-size="24px" font-style="normal" font-weight="normal" text-decoration="none" x="0" y="450">UNREGISTERED</text><text fill="#eeeeee" stroke="none" font-family="Arial" font-size="24px" font-style="normal" font-weight="normal" text-decoration="none" x="0" y="480">UNREGISTERED</text><text fill="#eeeeee" stroke="none" font-family="Arial" font-size="24px" font-style="normal" font-weight="normal" text-decoration="none" x="0" y="510">UNREGISTERED</text><text fill="#eeeeee" stroke="none" font-family="Arial" font-size="24px" font-style="normal" font-weight="normal" text-decoration="none" x="0" y="540">UNREGISTERED</text><text fill="#eeeeee" stroke="none" font-family="Arial" font-size="24px" font-style="normal" font-weight="normal" text-decoration="none" x="0" y="570">UNREGISTERED</text><text fill="#eeeeee" stroke="none" font-family="Arial" font-size="24px" font-style="normal" font-weight="normal" text-decoration="none" x="200" y="0">UNREGISTERED</text><text fill="#eeeeee" stroke="none" font-family="Arial" font-size="24px" font-style="normal" font-weight="normal" text-decoration="none" x="200" y="30">UNREGISTERED</text><text fill="#eeeeee" stroke="none" font-family="Arial" font-size="24px" font-style="normal" font-weight="normal" text-decoration="none" x="200" y="60">UNREGISTERED</text><text fill="#eeeeee" stroke="none" font-family="Arial" font-size="24px" font-style="normal" font-weight="normal" text-decoration="none" x="200" y="90">UNREGISTERED</text><text fill="#eeeeee" stroke="none" font-family="Arial" font-size="24px" font-style="normal" font-weight="normal" text-decoration="none" x="200" y="120">UNREGISTERED</text><text fill="#eeeeee" stroke="none" font-family="Arial" font-size="24px" font-style="normal" font-weight="normal" text-decoration="none" x="200" y="150">UNREGISTERED</text><text fill="#eeeeee" stroke="none" font-family="Arial" font-size="24px" font-style="normal" font-weight="normal" text-decoration="none" x="200" y="180">UNREGISTERED</text><text fill="#eeeeee" stroke="none" font-family="Arial" font-size="24px" font-style="normal" font-weight="normal" text-decoration="none" x="200" y="210">UNREGISTERED</text><text fill="#eeeeee" stroke="none" font-family="Arial" font-size="24px" font-style="normal" font-weight="normal" text-decoration="none" x="200" y="240">UNREGISTERED</text><text fill="#eeeeee" stroke="none" font-family="Arial" font-size="24px" font-style="normal" font-weight="normal" text-decoration="none" x="200" y="270">UNREGISTERED</text><text fill="#eeeeee" stroke="none" font-family="Arial" font-size="24px" font-style="normal" font-weight="normal" text-decoration="none" x="200" y="300">UNREGISTERED</text><text fill="#eeeeee" stroke="none" font-family="Arial" font-size="24px" font-style="normal" font-weight="normal" text-decoration="none" x="200" y="330">UNREGISTERED</text><text fill="#eeeeee" stroke="none" font-family="Arial" font-size="24px" font-style="normal" font-weight="normal" text-decoration="none" x="200" y="360">UNREGISTERED</text><text fill="#eeeeee" stroke="none" font-family="Arial" font-size="24px" font-style="normal" font-weight="normal" text-decoration="none" x="200" y="390">UNREGISTERED</text><text fill="#eeeeee" stroke="none" font-family="Arial" font-size="24px" font-style="normal" font-weight="normal" text-decoration="none" x="200" y="420">UNREGISTERED</text><text fill="#eeeeee" stroke="none" font-family="Arial" font-size="24px" font-style="normal" font-weight="normal" text-decoration="none" x="200" y="450">UNREGISTERED</text><text fill="#eeeeee" stroke="none" font-family="Arial" font-size="24px" font-style="normal" font-weight="normal" text-decoration="none" x="200" y="480">UNREGISTERED</text><text fill="#eeeeee" stroke="none" font-family="Arial" font-size="24px" font-style="normal" font-weight="normal" text-decoration="none" x="200" y="510">UNREGISTERED</text><text fill="#eeeeee" stroke="none" font-family="Arial" font-size="24px" font-style="normal" font-weight="normal" text-decoration="none" x="200" y="540">UNREGISTERED</text><text fill="#eeeeee" stroke="none" font-family="Arial" font-size="24px" font-style="normal" font-weight="normal" text-decoration="none" x="200" y="570">UNREGISTERED</text><text fill="#eeeeee" stroke="none" font-family="Arial" font-size="24px" font-style="normal" font-weight="normal" text-decoration="none" x="400" y="0">UNREGISTERED</text><text fill="#eeeeee" stroke="none" font-family="Arial" font-size="24px" font-style="normal" font-weight="normal" text-decoration="none" x="400" y="30">UNREGISTERED</text><text fill="#eeeeee" stroke="none" font-family="Arial" font-size="24px" font-style="normal" font-weight="normal" text-decoration="none" x="400" y="60">UNREGISTERED</text><text fill="#eeeeee" stroke="none" font-family="Arial" font-size="24px" font-style="normal" font-weight="normal" text-decoration="none" x="400" y="90">UNREGISTERED</text><text fill="#eeeeee" stroke="none" font-family="Arial" font-size="24px" font-style="normal" font-weight="normal" text-decoration="none" x="400" y="120">UNREGISTERED</text><text fill="#eeeeee" stroke="none" font-family="Arial" font-size="24px" font-style="normal" font-weight="normal" text-decoration="none" x="400" y="150">UNREGISTERED</text><text fill="#eeeeee" stroke="none" font-family="Arial" font-size="24px" font-style="normal" font-weight="normal" text-decoration="none" x="400" y="180">UNREGISTERED</text><text fill="#eeeeee" stroke="none" font-family="Arial" font-size="24px" font-style="normal" font-weight="normal" text-decoration="none" x="400" y="210">UNREGISTERED</text><text fill="#eeeeee" stroke="none" font-family="Arial" font-size="24px" font-style="normal" font-weight="normal" text-decoration="none" x="400" y="240">UNREGISTERED</text><text fill="#eeeeee" stroke="none" font-family="Arial" font-size="24px" font-style="normal" font-weight="normal" text-decoration="none" x="400" y="270">UNREGISTERED</text><text fill="#eeeeee" stroke="none" font-family="Arial" font-size="24px" font-style="normal" font-weight="normal" text-decoration="none" x="400" y="300">UNREGISTERED</text><text fill="#eeeeee" stroke="none" font-family="Arial" font-size="24px" font-style="normal" font-weight="normal" text-decoration="none" x="400" y="330">UNREGISTERED</text><text fill="#eeeeee" stroke="none" font-family="Arial" font-size="24px" font-style="normal" font-weight="normal" text-decoration="none" x="400" y="360">UNREGISTERED</text><text fill="#eeeeee" stroke="none" font-family="Arial" font-size="24px" font-style="normal" font-weight="normal" text-decoration="none" x="400" y="390">UNREGISTERED</text><text fill="#eeeeee" stroke="none" font-family="Arial" font-size="24px" font-style="normal" font-weight="normal" text-decoration="none" x="400" y="420">UNREGISTERED</text><text fill="#eeeeee" stroke="none" font-family="Arial" font-size="24px" font-style="normal" font-weight="normal" text-decoration="none" x="400" y="450">UNREGISTERED</text><text fill="#eeeeee" stroke="none" font-family="Arial" font-size="24px" font-style="normal" font-weight="normal" text-decoration="none" x="400" y="480">UNREGISTERED</text><text fill="#eeeeee" stroke="none" font-family="Arial" font-size="24px" font-style="normal" font-weight="normal" text-decoration="none" x="400" y="510">UNREGISTERED</text><text fill="#eeeeee" stroke="none" font-family="Arial" font-size="24px" font-style="normal" font-weight="normal" text-decoration="none" x="400" y="540">UNREGISTERED</text><text fill="#eeeeee" stroke="none" font-family="Arial" font-size="24px" font-style="normal" font-weight="normal" text-decoration="none" x="400" y="570">UNREGISTERED</text><g transform="translate(-220,-185) scale(1,1)"><path fill="#C0C0C0" stroke="none" d="M 397 241.5 C 397 236.2532944 401.2532944 232 406.5 232 C 411.7467056 232 416 236.2532944 416 241.5 C 416 246.7467056 411.7467056 251 406.5 251 C 401.2532944 251 397 246.7467056 397 241.5 Z" opacity="0.2"/></g><g transform="translate(-220,-185) scale(1,1)"><path fill="#000000" stroke="none" d="M 390 234.5 C 390 229.2532944 394.2532944 225 399.5 225 C 404.7467056 225 409 229.2532944 409 234.5 C 409 239.7467056 404.7467056 244 399.5 244 C 394.2532944 244 390 239.7467056 390 234.5 Z"/></g><g transform="translate(-220,-185) scale(1,1)"><path fill="#ffffff" stroke="none" d="M 470 195 L 569 195 L 579 205 L 579 244 L 470 244 L 470 195"/></g><g transform="translate(-220,-185) scale(1,1)"><path fill="none" stroke="#000000" d="M 470 195 L 569 195 L 579 205 L 579 244 L 470 244 L 470 195 L 470 195" stroke-miterlimit="10"/></g><g transform="translate(-220,-185) scale(1,1)"><path fill="none" stroke="#000000" d="M 569 195 L 569 205 L 579 205 L 569 195" stroke-miterlimit="10"/></g><g transform="translate(-220,-185) scale(1,1)"><g><path fill="none" stroke="none"/><text fill="#000000" stroke="none" font-family="Arial" font-size="13px" font-style="normal" font-weight="normal" text-decoration="none" x="475" y="213">Bruker velger</text><text fill="#000000" stroke="none" font-family="Arial" font-size="13px" font-style="normal" font-weight="normal" text-decoration="none" x="475" y="226">Blackjack i HUB</text></g></g><g transform="translate(-220,-185) scale(1,1)"><path fill="none" stroke="#000000" d="M 410 233 L 469 226" stroke-miterlimit="10" stroke-dasharray="3"/></g><g transform="translate(-220,-185) scale(1,1)"><path fill="#C0C0C0" stroke="none" d="M 347 272 L 468.69775390625 272 Q 478.69775390625 272 478.69775390625 282 L 478.69775390625 302 Q 478.69775390625 312 468.69775390625 312 L 347 312 Q 337 312 337 302 L 337 282 Q 337 272 347 272 Z" opacity="0.2"/></g><g transform="translate(-220,-185) scale(1,1)"><path fill="#ffffff" stroke="none" d="M 340 265 L 461.69775390625 265 Q 471.69775390625 265 471.69775390625 275 L 471.69775390625 295 Q 471.69775390625 305 461.69775390625 305 L 340 305 Q 330 305 330 295 L 330 275 Q 330 265 340 265 Z"/></g><g transform="translate(-220,-185) scale(1,1)"><path fill="none" stroke="#000000" d="M 340 265 L 461.69775390625 265 Q 471.69775390625 265 471.69775390625 275 L 471.69775390625 295 Q 471.69775390625 305 461.69775390625 305 L 340 305 Q 330 305 330 295 L 330 275 Q 330 265 340 265 Z" stroke-miterlimit="10"/></g><g transform="translate(-220,-185) scale(1,1)"><g><path fill="none" stroke="none"/><text fill="#000000" stroke="none" font-family="Arial" font-size="13px" font-style="normal" font-weight="bold" text-decoration="none" x="339.917724609375" y="284.5">Vis velkomst melding</text></g></g><g transform="translate(-220,-185) scale(1,1)"><path fill="#C0C0C0" stroke="none" d="M 380 352 L 443 352 Q 446 352 446 355 L 446 354 Q 446 357 443 357 L 380 357 Q 377 357 377 354 L 377 355 Q 377 352 380 352 Z" opacity="0.2"/></g><g transform="translate(-220,-185) scale(1,1)"><path fill="#000000" stroke="none" d="M 373 345 L 436 345 Q 439 345 439 348 L 439 348 Q 439 351 436 351 L 373 351 Q 370 351 370 348 L 370 348 Q 370 345 373 345 Z"/></g><g transform="translate(-220,-185) scale(1,1)"><path fill="none" stroke="#000000" d="M 403 305 L 403 345" stroke-miterlimit="10"/></g><g transform="translate(-220,-185) scale(1,1)"><path fill="none" stroke="#000000" d="M 398.790482243984 334.83732514237585 L 403 345 L 407.209517756016 334.83732514237585" stroke-miterlimit="10"/></g><g transform="translate(-220,-185) scale(1,1)"><path fill="#C0C0C0" stroke="none" d="M 297 402 L 377.05078125 402 Q 387.05078125 402 387.05078125 412 L 387.05078125 432 Q 387.05078125 442 377.05078125 442 L 297 442 Q 287 442 287 432 L 287 412 Q 287 402 297 402 Z" opacity="0.2"/></g><g transform="translate(-220,-185) scale(1,1)"><path fill="#ffffff" stroke="none" d="M 290 395 L 370.05078125 395 Q 380.05078125 395 380.05078125 405 L 380.05078125 425 Q 380.05078125 435 370.05078125 435 L 290 435 Q 280 435 280 425 L 280 405 Q 280 395 290 395 Z"/></g><g transform="translate(-220,-185) scale(1,1)"><path fill="none" stroke="#000000" d="M 290 395 L 370.05078125 395 Q 380.05078125 395 380.05078125 405 L 380.05078125 425 Q 380.05078125 435 370.05078125 435 L 290 435 Q 280 435 280 425 L 280 405 Q 280 395 290 395 Z" stroke-miterlimit="10"/></g><g transform="translate(-220,-185) scale(1,1)"><g><path fill="none" stroke="none"/><text fill="#000000" stroke="none" font-family="Arial" font-size="13px" font-style="normal" font-weight="bold" text-decoration="none" x="288.483154296875" y="414.5">Spill Blackjack</text></g></g><g transform="translate(-220,-185) scale(1,1)"><path fill="none" stroke="#000000" d="M 395 350 L 395 375 L 330 375 L 330 395" stroke-miterlimit="10"/></g><g transform="translate(-220,-185) scale(1,1)"><path fill="none" stroke="#000000" d="M 325.790482243984 384.83732514237585 L 330 395 L 334.209517756016 384.83732514237585" stroke-miterlimit="10"/></g><g transform="translate(-220,-185) scale(1,1)"><path fill="#C0C0C0" stroke="none" d="M 442 402 L 486.6435546875 402 Q 496.6435546875 402 496.6435546875 412 L 496.6435546875 432 Q 496.6435546875 442 486.6435546875 442 L 442 442 Q 432 442 432 432 L 432 412 Q 432 402 442 402 Z" opacity="0.2"/></g><g transform="translate(-220,-185) scale(1,1)"><path fill="#ffffff" stroke="none" d="M 435 395 L 479.6435546875 395 Q 489.6435546875 395 489.6435546875 405 L 489.6435546875 425 Q 489.6435546875 435 479.6435546875 435 L 435 435 Q 425 435 425 425 L 425 405 Q 425 395 435 395 Z"/></g><g transform="translate(-220,-185) scale(1,1)"><path fill="none" stroke="#000000" d="M 435 395 L 479.6435546875 395 Q 489.6435546875 395 489.6435546875 405 L 489.6435546875 425 Q 489.6435546875 435 479.6435546875 435 L 435 435 Q 425 435 425 425 L 425 405 Q 425 395 435 395 Z" stroke-miterlimit="10"/></g><g transform="translate(-220,-185) scale(1,1)"><g><path fill="none" stroke="none"/><text fill="#000000" stroke="none" font-family="Arial" font-size="13px" font-style="normal" font-weight="bold" text-decoration="none" x="430.947265625" y="414.5">Se regler</text></g></g><g transform="translate(-220,-185) scale(1,1)"><path fill="none" stroke="#000000" d="M 415 350 L 415 375 L 455 375 L 455 395" stroke-miterlimit="10"/></g><g transform="translate(-220,-185) scale(1,1)"><path fill="none" stroke="#000000" d="M 450.790482243984 384.83732514237585 L 455 395 L 459.209517756016 384.83732514237585" stroke-miterlimit="10"/></g><g transform="translate(-220,-185) scale(1,1)"><path fill="none" stroke="#000000" d="M 400 244 L 400 265" stroke-miterlimit="10"/></g><g transform="translate(-220,-185) scale(1,1)"><path fill="none" stroke="#000000" d="M 395.790482243984 254.83732514237585 L 400 265 L 404.209517756016 254.83732514237585" stroke-miterlimit="10"/></g><g transform="translate(-220,-185) scale(1,1)"><path fill="#C0C0C0" stroke="none" d="M 277 472 L 399.67529296875 472 Q 409.67529296875 472 409.67529296875 482 L 409.67529296875 502 Q 409.67529296875 512 399.67529296875 512 L 277 512 Q 267 512 267 502 L 267 482 Q 267 472 277 472 Z" opacity="0.2"/></g><g transform="translate(-220,-185) scale(1,1)"><path fill="#ffffff" stroke="none" d="M 270 465 L 392.67529296875 465 Q 402.67529296875 465 402.67529296875 475 L 402.67529296875 495 Q 402.67529296875 505 392.67529296875 505 L 270 505 Q 260 505 260 495 L 260 475 Q 260 465 270 465 Z"/></g><g transform="translate(-220,-185) scale(1,1)"><path fill="none" stroke="#000000" d="M 270 465 L 392.67529296875 465 Q 402.67529296875 465 402.67529296875 475 L 402.67529296875 495 Q 402.67529296875 505 392.67529296875 505 L 270 505 Q 260 505 260 495 L 260 475 Q 260 465 270 465 Z" stroke-miterlimit="10"/></g><g transform="translate(-220,-185) scale(1,1)"><g><path fill="none" stroke="none"/><text fill="#000000" stroke="none" font-family="Arial" font-size="13px" font-style="normal" font-weight="bold" text-decoration="none" x="269.930419921875" y="484.5">Start Blackjack Script</text></g></g><g transform="translate(-220,-185) scale(1,1)"><path fill="none" stroke="#000000" d="M 330 435 L 330 465" stroke-miterlimit="10"/></g><g transform="translate(-220,-185) scale(1,1)"><path fill="none" stroke="#000000" d="M 325.790482243984 454.83732514237585 L 330 465 L 334.209517756016 454.83732514237585" stroke-miterlimit="10"/></g><g transform="translate(-220,-185) scale(1,1)"><path fill="#C0C0C0" stroke="none" d="M 437 472 L 620.8603515625 472 Q 630.8603515625 472 630.8603515625 482 L 630.8603515625 502 Q 630.8603515625 512 620.8603515625 512 L 437 512 Q 427 512 427 502 L 427 482 Q 427 472 437 472 Z" opacity="0.2"/></g><g transform="translate(-220,-185) scale(1,1)"><path fill="#ffffff" stroke="none" d="M 430 465 L 613.8603515625 465 Q 623.8603515625 465 623.8603515625 475 L 623.8603515625 495 Q 623.8603515625 505 613.8603515625 505 L 430 505 Q 420 505 420 495 L 420 475 Q 420 465 430 465 Z"/></g><g transform="translate(-220,-185) scale(1,1)"><path fill="none" stroke="#000000" d="M 430 465 L 613.8603515625 465 Q 623.8603515625 465 623.8603515625 475 L 623.8603515625 495 Q 623.8603515625 505 613.8603515625 505 L 430 505 Q 420 505 420 495 L 420 475 Q 420 465 430 465 Z" stroke-miterlimit="10"/></g><g transform="translate(-220,-185) scale(1,1)"><g><path fill="none" stroke="none"/><text fill="#000000" stroke="none" font-family="Arial" font-size="13px" font-style="normal" font-weight="bold" text-decoration="none" x="431.37451171875" y="484.5">Vis modal med Blackjack regler</text></g></g><g transform="translate(-220,-185) scale(1,1)"><path fill="none" stroke="#000000" d="M 457 435 L 457 450 L 525 450 L 525 465" stroke-miterlimit="10"/></g><g transform="translate(-220,-185) scale(1,1)"><path fill="none" stroke="#000000" d="M 520.790482243984 454.83732514237585 L 525 465 L 529.209517756016 454.83732514237585" stroke-miterlimit="10"/></g><g transform="translate(-220,-185) scale(1,1)"><path fill="#C0C0C0" stroke="none" d="M 375 592 L 438 592 Q 441 592 441 595 L 441 594 Q 441 597 438 597 L 375 597 Q 372 597 372 594 L 372 595 Q 372 592 375 592 Z" opacity="0.2"/></g><g transform="translate(-220,-185) scale(1,1)"><path fill="#000000" stroke="none" d="M 368 585 L 431 585 Q 434 585 434 588 L 434 588 Q 434 591 431 591 L 368 591 Q 365 591 365 588 L 365 588 Q 365 585 368 585 Z"/></g><g transform="translate(-220,-185) scale(1,1)"><path fill="none" stroke="#000000" d="M 330 505 L 330 545 L 385 545 L 385 585" stroke-miterlimit="10"/></g><g transform="translate(-220,-185) scale(1,1)"><path fill="none" stroke="#000000" d="M 380.790482243984 574.8373251423759 L 385 585 L 389.209517756016 574.8373251423759" stroke-miterlimit="10"/></g><g transform="translate(-220,-185) scale(1,1)"><path fill="none" stroke="#000000" d="M 525 505 L 525 545 L 415 545 L 415 585" stroke-miterlimit="10"/></g><g transform="translate(-220,-185) scale(1,1)"><path fill="none" stroke="#000000" d="M 410.790482243984 574.8373251423759 L 415 585 L 419.209517756016 574.8373251423759" stroke-miterlimit="10"/></g><g transform="translate(-220,-185) scale(1,1)"><path fill="#C0C0C0" stroke="none" d="M 467 672 L 506 672 Q 516 672 516 682 L 516 702 Q 516 712 506 712 L 467 712 Q 457 712 457 702 L 457 682 Q 457 672 467 672 Z" opacity="0.2"/></g><g transform="translate(-220,-185) scale(1,1)"><path fill="#ffffff" stroke="none" d="M 460 665 L 499 665 Q 509 665 509 675 L 509 695 Q 509 705 499 705 L 460 705 Q 450 705 450 695 L 450 675 Q 450 665 460 665 Z"/></g><g transform="translate(-220,-185) scale(1,1)"><path fill="none" stroke="#000000" d="M 460 665 L 499 665 Q 509 665 509 675 L 509 695 Q 509 705 499 705 L 460 705 Q 450 705 450 695 L 450 675 Q 450 665 460 665 Z" stroke-miterlimit="10"/></g><g transform="translate(-220,-185) scale(1,1)"><g><path fill="none" stroke="none"/><text fill="#000000" stroke="none" font-family="Arial" font-size="13px" font-style="normal" font-weight="bold" text-decoration="none" x="459.263671875" y="684.5">Payout</text></g></g><g transform="translate(-220,-185) scale(1,1)"><path fill="#C0C0C0" stroke="none" d="M 397 646.5 L 408.5 637 L 419 646.5 L 408.5 655 L 397 646.5" opacity="0.2"/></g><g transform="translate(-220,-185) scale(1,1)"><path fill="#ffffff" stroke="none" d="M 390 639 L 401 630 L 412 639 L 401 648 L 390 639"/></g><g transform="translate(-220,-185) scale(1,1)"><path fill="none" stroke="#000000" d="M 390 639 L 401 630 L 412 639 L 401 648 L 390 639 L 390 639" stroke-miterlimit="10"/></g><g transform="translate(-220,-185) scale(1,1)"><path fill="none" stroke="#000000" d="M 400 590 L 400 630" stroke-miterlimit="10"/></g><g transform="translate(-220,-185) scale(1,1)"><path fill="none" stroke="#000000" d="M 395.790482243984 619.8373251423759 L 400 630 L 404.209517756016 619.8373251423759" stroke-miterlimit="10"/></g><g transform="translate(-220,-185) scale(1,1)"><path fill="none" stroke="#000000" d="M 412 640 L 479 640 L 479 665" stroke-miterlimit="10"/></g><g transform="translate(-220,-185) scale(1,1)"><path fill="none" stroke="#000000" d="M 474.790482243984 654.8373251423759 L 479 665 L 483.209517756016 654.8373251423759" stroke-miterlimit="10"/></g><g transform="translate(-220,-185) scale(1,1)"><g><path fill="none" stroke="none"/><text fill="#000000" stroke="none" font-family="Arial" font-size="13px" font-style="normal" font-weight="normal" text-decoration="none" x="424.5" y="631.5"> [vant tokens]</text></g></g><g transform="translate(-220,-185) scale(1,1)"><path fill="#C0C0C0" stroke="none" d="M 397 696.5 L 408.5 687 L 419 696.5 L 408.5 705 L 397 696.5" opacity="0.2"/></g><g transform="translate(-220,-185) scale(1,1)"><path fill="#ffffff" stroke="none" d="M 390 689 L 401 680 L 412 689 L 401 698 L 390 689"/></g><g transform="translate(-220,-185) scale(1,1)"><path fill="none" stroke="#000000" d="M 390 689 L 401 680 L 412 689 L 401 698 L 390 689 L 390 689" stroke-miterlimit="10"/></g><g transform="translate(-220,-185) scale(1,1)"><path fill="none" stroke="#000000" d="M 401 648 L 401 680" stroke-miterlimit="10"/></g><g transform="translate(-220,-185) scale(1,1)"><path fill="none" stroke="#000000" d="M 396.790482243984 669.8373251423759 L 401 680 L 405.209517756016 669.8373251423759" stroke-miterlimit="10"/></g><g transform="translate(-220,-185) scale(1,1)"><path fill="none" stroke="#000000" d="M 450 688 L 412 688" stroke-miterlimit="10"/></g><g transform="translate(-220,-185) scale(1,1)"><path fill="none" stroke="#000000" d="M 422.16267485762415 683.790482243984 L 412 688 L 422.16267485762415 692.209517756016" stroke-miterlimit="10"/></g><g transform="translate(-220,-185) scale(1,1)"><path fill="#C0C0C0" stroke="none" d="M 367 737 L 457.8544921875 737 Q 467.8544921875 737 467.8544921875 747 L 467.8544921875 767 Q 467.8544921875 777 457.8544921875 777 L 367 777 Q 357 777 357 767 L 357 747 Q 357 737 367 737 Z" opacity="0.2"/></g><g transform="translate(-220,-185) scale(1,1)"><path fill="#ffffff" stroke="none" d="M 360 730 L 450.8544921875 730 Q 460.8544921875 730 460.8544921875 740 L 460.8544921875 760 Q 460.8544921875 770 450.8544921875 770 L 360 770 Q 350 770 350 760 L 350 740 Q 350 730 360 730 Z"/></g><g transform="translate(-220,-185) scale(1,1)"><path fill="none" stroke="#000000" d="M 360 730 L 450.8544921875 730 Q 460.8544921875 730 460.8544921875 740 L 460.8544921875 760 Q 460.8544921875 770 450.8544921875 770 L 360 770 Q 350 770 350 760 L 350 740 Q 350 730 360 730 Z" stroke-miterlimit="10"/></g><g transform="translate(-220,-185) scale(1,1)"><g><path fill="none" stroke="none"/><text fill="#000000" stroke="none" font-family="Arial" font-size="13px" font-style="normal" font-weight="bold" text-decoration="none" x="358.095947265625" y="749.5">Oppdater bruker</text></g></g><g transform="translate(-220,-185) scale(1,1)"><path fill="none" stroke="#000000" d="M 400 698 L 400 730" stroke-miterlimit="10"/></g><g transform="translate(-220,-185) scale(1,1)"><path fill="none" stroke="#000000" d="M 395.790482243984 719.8373251423759 L 400 730 L 404.209517756016 719.8373251423759" stroke-miterlimit="10"/></g><g transform="translate(-220,-185) scale(1,1)"><path fill="none" stroke="#000000" d="M 350 750 L 230 750 L 230 285 L 330 285" stroke-miterlimit="10"/></g><g transform="translate(-220,-185) scale(1,1)"><path fill="none" stroke="#000000" d="M 319.83732514237585 289.209517756016 L 330 285 L 319.83732514237585 280.790482243984" stroke-miterlimit="10"/></g><g transform="translate(-220,-185) scale(1,1)"><path fill="#C0C0C0" stroke="none" d="M 567 352 L 677 352 Q 687 352 687 362 L 687 382 Q 687 392 677 392 L 567 392 Q 557 392 557 382 L 557 362 Q 557 352 567 352 Z" opacity="0.2"/></g><g transform="translate(-220,-185) scale(1,1)"><path fill="#ffffff" stroke="none" d="M 560 345 L 670 345 Q 680 345 680 355 L 680 375 Q 680 385 670 385 L 560 385 Q 550 385 550 375 L 550 355 Q 550 345 560 345 Z"/></g><g transform="translate(-220,-185) scale(1,1)"><path fill="none" stroke="#000000" d="M 560 345 L 670 345 Q 680 345 680 355 L 680 375 Q 680 385 670 385 L 560 385 Q 550 385 550 375 L 550 355 Q 550 345 560 345 Z" stroke-miterlimit="10"/></g><g transform="translate(-220,-185) scale(1,1)"><g><path fill="none" stroke="none"/><text fill="#000000" stroke="none" font-family="Arial" font-size="13px" font-style="normal" font-weight="bold" text-decoration="none" x="570.56005859375" y="364.5">Returner til hub</text></g></g><g transform="translate(-220,-185) scale(1,1)"><path fill="none" stroke="#000000" d="M 425 350 L 425 365 L 550 365" stroke-miterlimit="10"/></g><g transform="translate(-220,-185) scale(1,1)"><path fill="none" stroke="#000000" d="M 539.8373251423759 369.209517756016 L 550 365 L 539.8373251423758 360.790482243984" stroke-miterlimit="10"/></g><g transform="translate(-220,-185) scale(1,1)"><path fill="#C0C0C0" stroke="none" d="M 717 374.5 C 717 367.59644 722.59644 362 729.5 362 C 736.40356 362 742 367.59644 742 374.5 C 742 381.40356 736.40356 387 729.5 387 C 722.59644 387 717 381.40356 717 374.5 Z" opacity="0.2"/></g><g transform="translate(-220,-185) scale(1,1)"><path fill="none" stroke="#000000" d="M 710 367.5 C 710 360.59644 715.59644 355 722.5 355 C 729.40356 355 735 360.59644 735 367.5 C 735 374.40356 729.40356 380 722.5 380 C 715.59644 380 710 374.40356 710 367.5 Z" stroke-miterlimit="10"/></g><g transform="translate(-220,-185) scale(1,1)"><path fill="#000000" stroke="none" d="M 715 367.5 C 715 363.357864 718.357864 360 722.5 360 C 726.642136 360 730 363.357864 730 367.5 C 730 371.642136 726.642136 375 722.5 375 C 718.357864 375 715 371.642136 715 367.5 Z"/></g><g transform="translate(-220,-185) scale(1,1)"><path fill="none" stroke="#000000" d="M 680 367 L 710 367" stroke-miterlimit="10"/></g><g transform="translate(-220,-185) scale(1,1)"><path fill="none" stroke="#000000" d="M 699.8373251423759 371.209517756016 L 710 367 L 699.8373251423758 362.790482243984" stroke-miterlimit="10"/></g></g></svg>