<svg version="1.1" xmlns="http://www.w3.org/2000/svg" xmlns:xlink="http://www.w3.org/1999/xlink" width="490.349609375" height="510"><defs/><g><text fill="#eeeeee" stroke="none" font-family="Arial" font-size="24px" font-style="normal" font-weight="normal" text-decoration="none" x="0" y="0">UNREGISTERED</text><text fill="#eeeeee" stroke="none" font-family="Arial" font-size="24px" font-style="normal" font-weight="normal" text-decoration="none" x="0" y="30">UNREGISTERED</text><text fill="#eeeeee" stroke="none" font-family="Arial" font-size="24px" font-style="normal" font-weight="normal" text-decoration="none" x="0" y="60">UNREGISTERED</text><text fill="#eeeeee" stroke="none" font-family="Arial" font-size="24px" font-style="normal" font-weight="normal" text-decoration="none" x="0" y="90">UNREGISTERED</text><text fill="#eeeeee" stroke="none" font-family="Arial" font-size="24px" font-style="normal" font-weight="normal" text-decoration="none" x="0" y="120">UNREGISTERED</text><text fill="#eeeeee" stroke="none" font-family="Arial" font-size="24px" font-style="normal" font-weight="normal" text-decoration="none" x="0" y="150">UNREGISTERED</text><text fill="#eeeeee" stroke="none" font-family="Arial" font-size="24px" font-style="normal" font-weight="normal" text-decoration="none" x="0" y="180">UNREGISTERED</text><text fill="#eeeeee" stroke="none" font-family="Arial" font-size="24px" font-style="normal" font-weight="normal" text-decoration="none" x="0" y="210">UNREGISTERED</text><text fill="#eeeeee" stroke="none" font-family="Arial" font-size="24px" font-style="normal" font-weight="normal" text-decoration="none" x="0" y="240">UNREGISTERED</text><text fill="#eeeeee" stroke="none" font-family="Arial" font-size="24px" font-style="normal" font-weight="normal" text-decoration="none" x="0" y="270">UNREGISTERED</text><text fill="#eeeeee" stroke="none" font-family="Arial" font-size="24px" font-style="normal" font-weight="normal" text-decoration="none" x="0" y="300">UNREGISTERED</text><text fill="#eeeeee" stroke="none" font-family="Arial" font-size="24px" font-style="normal" font-weight="normal" text-decoration="none" x="0" y="330">UNREGISTERED</text><text fill="#eeeeee" stroke="none" font-family="Arial" font-size="24px" font-style="normal" font-weight="normal" text-decoration="none" x="0" y="360">UNREGISTERED</text><text fill="#eeeeee" stroke="none" font-family="Arial" font-size="24px" font-style="normal" font-weight="normal" text-decoration="none" x="0" y="390">UNREGISTERED</text><text fill="#eeeeee" stroke="none" font-family="Arial" font-size="24px" font-style="normal" font-weight="normal" text-decoration="none" x="0" y="420">UNREGISTERED</text><text fill="#eeeeee" stroke="none" font-family="Arial" font-size="24px" font-style="normal" font-weight="normal" text-decoration="none" x="0" y="450">UNREGISTERED</text><text fill="#eeeeee" stroke="none" font-family="Arial" font-size="24px" font-style="normal" font-weight="normal" text-decoration="none" x="0" y="480">UNREGISTERED</text><text fill="#eeeeee" stroke="none" font-family="Arial" font-size="24px" font-style="normal" font-weight="normal" text-decoration="none" x="200" y="0">UNREGISTERED</text><text fill="#eeeeee" stroke="none" font-family="Arial" font-size="24px" font-style="normal" font-weight="normal" text-decoration="none" x="200" y="30">UNREGISTERED</text><text fill="#eeeeee" stroke="none" font-family="Arial" font-size="24px" font-style="normal" font-weight="normal" text-decoration="none" x="200" y="60">UNREGISTERED</text><text fill="#eeeeee" stroke="none" font-family="Arial" font-size="24px" font-style="normal" font-weight="normal" text-decoration="none" x="200" y="90">UNREGISTERED</text><text fill="#eeeeee" stroke="none" font-family="Arial" font-size="24px" font-style="normal" font-weight="normal" text-decoration="none" x="200" y="120">UNREGISTERED</text><text fill="#eeeeee" stroke="none" font-family="Arial" font-size="24px" font-style="normal" font-weight="normal" text-decoration="none" x="200" y="150">UNREGISTERED</text><text fill="#eeeeee" stroke="none" font-family="Arial" font-size="24px" font-style="normal" font-weight="normal" text-decoration="none" x="200" y="180">UNREGISTERED</text><text fill="#eeeeee" stroke="none" font-family="Arial" font-size="24px" font-style="normal" font-weight="normal" text-decoration="none" x="200" y="210">UNREGISTERED</text><text fill="#eeeeee" stroke="none" font-family="Arial" font-size="24px" font-style="normal" font-weight="normal" text-decoration="none" x="200" y="240">UNREGISTERED</text><text fill="#eeeeee" stroke="none" font-family="Arial" font-size="24px" font-style="normal" font-weight="normal" text-decoration="none" x="200" y="270">UNREGISTERED</text><text fill="#eeeeee" stroke="none" font-family="Arial" font-size="24px" font-style="normal" font-weight="normal" text-decoration="none" x="200" y="300">UNREGISTERED</text><text fill="#eeeeee" stroke="none" font-family="Arial" font-size="24px" font-style="normal" font-weight="normal" text-decoration="none" x="200" y="330">UNREGISTERED</text><text fill="#eeeeee" stroke="none" font-family="Arial" font-size="24px" font-style="normal" font-weight="normal" text-decoration="none" x="200" y="360">UNREGISTERED</text><text fill="#eeeeee" stroke="none" font-family="Arial" font-size="24px" font-style="normal" font-weight="normal" text-decoration="none" x="200" y="390">UNREGISTERED</text><text fill="#eeeeee" stroke="none" font-family="Arial" font-size="24px" font-style="normal" font-weight="normal" text-decoration="none" x="200" y="420">UNREGISTERED</text><text fill="#eeeeee" stroke="none" font-family="Arial" font-size="24px" font-style="normal" font-weight="normal" text-decoration="none" x="200" y="450">UNREGISTERED</text><text fill="#eeeeee" stroke="none" font-family="Arial" font-size="24px" font-style="normal" font-weight="normal" text-decoration="none" x="200" y="480">UNREGISTERED</text><text fill="#eeeeee" stroke="none" font-family="Arial" font-size="24px" font-style="normal" font-weight="normal" text-decoration="none" x="400" y="0">UNREGISTERED</text><text fill="#eeeeee" stroke="none" font-family="Arial" font-size="24px" font-style="normal" font-weight="normal" text-decoration="none" x="400" y="30">UNREGISTERED</text><text fill="#eeeeee" stroke="none" font-family="Arial" font-size="24px" font-style="normal" font-weight="normal" text-decoration="none" x="400" y="60">UNREGISTERED</text><text fill="#eeeeee" stroke="none" font-family="Arial" font-size="24px" font-style="normal" font-weight="normal" text-decoration="none" x="400" y="90">UNREGISTERED</text><text fill="#eeeeee" stroke="none" font-family="Arial" font-size="24px" font-style="normal" font-weight="normal" text-decoration="none" x="400" y="120">UNREGISTERED</text><text fill="#eeeeee" stroke="none" font-family="Arial" font-size="24px" font-style="normal" font-weight="normal" text-decoration="none" x="400" y="150">UNREGISTERED</text><text fill="#eeeeee" stroke="none" font-family="Arial" font-size="24px" font-style="normal" font-weight="normal" text-decoration="none" x="400" y="180">UNREGISTERED</text><text fill="#eeeeee" stroke="none" font-family="Arial" font-size="24px" font-style="normal" font-weight="normal" text-decoration="none" x="400" y="210">UNREGISTERED</text><text fill="#eeeeee" stroke="none" font-family="Arial" font-size="24px" font-style="normal" font-weight="normal" text-decoration="none" x="400" y="240">UNREGISTERED</text><text fill="#eeeeee" stroke="none" font-family="Arial" font-size="24px" font-style="normal" font-weight="normal" text-decoration="none" x="400" y="270">UNREGISTERED</text><text fill="#eeeeee" stroke="none" font-family="Arial" font-size="24px" font-style="normal" font-weight="normal" text-decoration="none" x="400" y="300">UNREGISTERED</text><text fill="#eeeeee" stroke="none" font-family="Arial" font-size="24px" font-style="normal" font-weight="normal" text-decoration="none" x="400" y="330">UNREGISTERED</text><text fill="#eeeeee" stroke="none" font-family="Arial" font-size="24px" font-style="normal" font-weight="normal" text-decoration="none" x="400" y="360">UNREGISTERED</text><text fill="#eeeeee" stroke="none" font-family="Arial" font-size="24px" font-style="normal" font-weight="normal" text-decoration="none" x="400" y="390">UNREGISTERED</text><text fill="#eeeeee" stroke="none" font-family="Arial" font-size="24px" font-style="normal" font-weight="normal" text-decoration="none" x="400" y="420">UNREGISTERED</text><text fill="#eeeeee" stroke="none" font-family="Arial" font-size="24px" font-style="normal" font-weight="normal" text-decoration="none" x="400" y="450">UNREGISTERED</text><text fill="#eeeeee" stroke="none" font-family="Arial" font-size="24px" font-style="normal" font-weight="normal" text-decoration="none" x="400" y="480">UNREGISTERED</text><g transform="translate(-425,-15) scale(1,1)"><path fill="#C0C0C0" stroke="none" d="M 602 61.5 C 602 56.2532944 606.2532944 52 611.5 52 C 616.7467056 52 621 56.2532944 621 61.5 C 621 66.7467056 616.7467056 71 611.5 71 C 606.2532944 71 602 66.7467056 602 61.5 Z" opacity="0.2"/></g><g transform="translate(-425,-15) scale(1,1)"><path fill="#000000" stroke="none" d="M 595 54.5 C 595 49.2532944 599.2532944 45 604.5 45 C 609.7467056 45 614 49.2532944 614 54.5 C 614 59.7467056 609.7467056 64 604.5 64 C 599.2532944 64 595 59.7467056 595 54.5 Z"/></g><g transform="translate(-425,-15) scale(1,1)"><path fill="#ffffff" stroke="none" d="M 645 25 L 691.2890625 25 L 701.2890625 35 L 701.2890625 74 L 645 74 L 645 25"/></g><g transform="translate(-425,-15) scale(1,1)"><path fill="none" stroke="#000000" d="M 645 25 L 691.2890625 25 L 701.2890625 35 L 701.2890625 74 L 645 74 L 645 25 L 645 25" stroke-miterlimit="10"/></g><g transform="translate(-425,-15) scale(1,1)"><path fill="none" stroke="#000000" d="M 691.2890625 25 L 691.2890625 35 L 701.2890625 35 L 691.2890625 25" stroke-miterlimit="10"/></g><g transform="translate(-425,-15) scale(1,1)"><g><path fill="none" stroke="none"/><text fill="#000000" stroke="none" font-family="Arial" font-size="13px" font-style="normal" font-weight="normal" text-decoration="none" x="650" y="43">Bruker</text><text fill="#000000" stroke="none" font-family="Arial" font-size="13px" font-style="normal" font-weight="normal" text-decoration="none" x="650" y="56">er i hub</text></g></g><g transform="translate(-425,-15) scale(1,1)"><path fill="none" stroke="#000000" d="M 615 53 L 644 52" stroke-miterlimit="10" stroke-dasharray="3"/></g><g transform="translate(-425,-15) scale(1,1)"><path fill="#C0C0C0" stroke="none" d="M 577 97 L 648.37353515625 97 Q 658.37353515625 97 658.37353515625 107 L 658.37353515625 127 Q 658.37353515625 137 648.37353515625 137 L 577 137 Q 567 137 567 127 L 567 107 Q 567 97 577 97 Z" opacity="0.2"/></g><g transform="translate(-425,-15) scale(1,1)"><path fill="#ffffff" stroke="none" d="M 570 90 L 641.37353515625 90 Q 651.37353515625 90 651.37353515625 100 L 651.37353515625 120 Q 651.37353515625 130 641.37353515625 130 L 570 130 Q 560 130 560 120 L 560 100 Q 560 90 570 90 Z"/></g><g transform="translate(-425,-15) scale(1,1)"><path fill="none" stroke="#000000" d="M 570 90 L 641.37353515625 90 Q 651.37353515625 90 651.37353515625 100 L 651.37353515625 120 Q 651.37353515625 130 641.37353515625 130 L 570 130 Q 560 130 560 120 L 560 100 Q 560 90 570 90 Z" stroke-miterlimit="10"/></g><g transform="translate(-425,-15) scale(1,1)"><g><path fill="none" stroke="none"/><text fill="#000000" stroke="none" font-family="Arial" font-size="13px" font-style="normal" font-weight="bold" text-decoration="none" x="571.847412109375" y="109.5">Vis alle spill</text></g></g><g transform="translate(-425,-15) scale(1,1)"><path fill="none" stroke="#000000" d="M 605 64 L 605 90" stroke-miterlimit="10"/></g><g transform="translate(-425,-15) scale(1,1)"><path fill="none" stroke="#000000" d="M 600.790482243984 79.83732514237585 L 605 90 L 609.209517756016 79.83732514237585" stroke-miterlimit="10"/></g><g transform="translate(-425,-15) scale(1,1)"><path fill="#C0C0C0" stroke="none" d="M 580 252 L 643 252 Q 646 252 646 255 L 646 254 Q 646 257 643 257 L 580 257 Q 577 257 577 254 L 577 255 Q 577 252 580 252 Z" opacity="0.2"/></g><g transform="translate(-425,-15) scale(1,1)"><path fill="#000000" stroke="none" d="M 573 245 L 636 245 Q 639 245 639 248 L 639 248 Q 639 251 636 251 L 573 251 Q 570 251 570 248 L 570 248 Q 570 245 573 245 Z"/></g><g transform="translate(-425,-15) scale(1,1)"><path fill="none" stroke="#000000" d="M 604 130 L 604 160" stroke-miterlimit="10"/></g><g transform="translate(-425,-15) scale(1,1)"><path fill="none" stroke="#000000" d="M 599.790482243984 149.83732514237585 L 604 160 L 608.209517756016 149.83732514237585" stroke-miterlimit="10"/></g><g transform="translate(-425,-15) scale(1,1)"><path fill="#C0C0C0" stroke="none" d="M 452 317 L 513.236328125 317 Q 523.236328125 317 523.236328125 327 L 523.236328125 347 Q 523.236328125 357 513.236328125 357 L 452 357 Q 442 357 442 347 L 442 327 Q 442 317 452 317 Z" opacity="0.2"/></g><g transform="translate(-425,-15) scale(1,1)"><path fill="#ffffff" stroke="none" d="M 445 310 L 506.236328125 310 Q 516.236328125 310 516.236328125 320 L 516.236328125 340 Q 516.236328125 350 506.236328125 350 L 445 350 Q 435 350 435 340 L 435 320 Q 435 310 445 310 Z"/></g><g transform="translate(-425,-15) scale(1,1)"><path fill="none" stroke="#000000" d="M 445 310 L 506.236328125 310 Q 516.236328125 310 516.236328125 320 L 516.236328125 340 Q 516.236328125 350 506.236328125 350 L 445 350 Q 435 350 435 340 L 435 320 Q 435 310 445 310 Z" stroke-miterlimit="10"/></g><g transform="translate(-425,-15) scale(1,1)"><g><path fill="none" stroke="none"/><text fill="#000000" stroke="none" font-family="Arial" font-size="13px" font-style="normal" font-weight="bold" text-decoration="none" x="449.964111328125" y="329.5">Velg spill</text></g></g><g transform="translate(-425,-15) scale(1,1)"><path fill="#C0C0C0" stroke="none" d="M 557 317 L 668.1162109375 317 Q 678.1162109375 317 678.1162109375 327 L 678.1162109375 347 Q 678.1162109375 357 668.1162109375 357 L 557 357 Q 547 357 547 347 L 547 327 Q 547 317 557 317 Z" opacity="0.2"/></g><g transform="translate(-425,-15) scale(1,1)"><path fill="#ffffff" stroke="none" d="M 550 310 L 661.1162109375 310 Q 671.1162109375 310 671.1162109375 320 L 671.1162109375 340 Q 671.1162109375 350 661.1162109375 350 L 550 350 Q 540 350 540 340 L 540 320 Q 540 310 550 310 Z"/></g><g transform="translate(-425,-15) scale(1,1)"><path fill="none" stroke="#000000" d="M 550 310 L 661.1162109375 310 Q 671.1162109375 310 671.1162109375 320 L 671.1162109375 340 Q 671.1162109375 350 661.1162109375 350 L 550 350 Q 540 350 540 340 L 540 320 Q 540 310 550 310 Z" stroke-miterlimit="10"/></g><g transform="translate(-425,-15) scale(1,1)"><g><path fill="none" stroke="none"/><text fill="#000000" stroke="none" font-family="Arial" font-size="13px" font-style="normal" font-weight="bold" text-decoration="none" x="549.200439453125" y="329.5">Personaliser bruker</text></g></g><g transform="translate(-425,-15) scale(1,1)"><path fill="#C0C0C0" stroke="none" d="M 717 317 L 756 317 Q 766 317 766 327 L 766 347 Q 766 357 756 357 L 717 357 Q 707 357 707 347 L 707 327 Q 707 317 717 317 Z" opacity="0.2"/></g><g transform="translate(-425,-15) scale(1,1)"><path fill="#ffffff" stroke="none" d="M 710 310 L 749 310 Q 759 310 759 320 L 759 340 Q 759 350 749 350 L 710 350 Q 700 350 700 340 L 700 320 Q 700 310 710 310 Z"/></g><g transform="translate(-425,-15) scale(1,1)"><path fill="none" stroke="#000000" d="M 710 310 L 749 310 Q 759 310 759 320 L 759 340 Q 759 350 749 350 L 710 350 Q 700 350 700 340 L 700 320 Q 700 310 710 310 Z" stroke-miterlimit="10"/></g><g transform="translate(-425,-15) scale(1,1)"><g><path fill="none" stroke="none"/><text fill="#000000" stroke="none" font-family="Arial" font-size="13px" font-style="normal" font-weight="bold" text-decoration="none" x="713.234130859375" y="329.5">Logut</text></g></g><g transform="translate(-425,-15) scale(1,1)"><path fill="none" stroke="#000000" d="M 585 250 L 585 280 L 475 280 L 475 310" stroke-miterlimit="10"/></g><g transform="translate(-425,-15) scale(1,1)"><path fill="none" stroke="#000000" d="M 470.790482243984 299.83732514237585 L 475 310 L 479.209517756016 299.83732514237585" stroke-miterlimit="10"/></g><g transform="translate(-425,-15) scale(1,1)"><path fill="none" stroke="#000000" d="M 604 250 L 604 310" stroke-miterlimit="10"/></g><g transform="translate(-425,-15) scale(1,1)"><path fill="none" stroke="#000000" d="M 599.790482243984 299.83732514237585 L 604 310 L 608.209517756016 299.83732514237585" stroke-miterlimit="10"/></g><g transform="translate(-425,-15) scale(1,1)"><path fill="none" stroke="#000000" d="M 615 250 L 615 285 L 730 285 L 730 310" stroke-miterlimit="10"/></g><g transform="translate(-425,-15) scale(1,1)"><path fill="none" stroke="#000000" d="M 725.790482243984 299.83732514237585 L 730 310 L 734.209517756016 299.83732514237585" stroke-miterlimit="10"/></g><g transform="translate(-425,-15) scale(1,1)"><path fill="#C0C0C0" stroke="none" d="M 457 382 L 505.236328125 382 Q 515.236328125 382 515.236328125 392 L 515.236328125 412 Q 515.236328125 422 505.236328125 422 L 457 422 Q 447 422 447 412 L 447 392 Q 447 382 457 382 Z" opacity="0.2"/></g><g transform="translate(-425,-15) scale(1,1)"><path fill="#ffffff" stroke="none" d="M 450 375 L 498.236328125 375 Q 508.236328125 375 508.236328125 385 L 508.236328125 405 Q 508.236328125 415 498.236328125 415 L 450 415 Q 440 415 440 405 L 440 385 Q 440 375 450 375 Z"/></g><g transform="translate(-425,-15) scale(1,1)"><path fill="none" stroke="#000000" d="M 450 375 L 498.236328125 375 Q 508.236328125 375 508.236328125 385 L 508.236328125 405 Q 508.236328125 415 498.236328125 415 L 450 415 Q 440 415 440 405 L 440 385 Q 440 375 450 375 Z" stroke-miterlimit="10"/></g><g transform="translate(-425,-15) scale(1,1)"><g><path fill="none" stroke="none"/><text fill="#000000" stroke="none" font-family="Arial" font-size="13px" font-style="normal" font-weight="bold" text-decoration="none" x="447.38818359375" y="394.5">Start spill</text></g></g><g transform="translate(-425,-15) scale(1,1)"><path fill="#C0C0C0" stroke="none" d="M 567 382 L 655.67724609375 382 Q 665.67724609375 382 665.67724609375 392 L 665.67724609375 412 Q 665.67724609375 422 655.67724609375 422 L 567 422 Q 557 422 557 412 L 557 392 Q 557 382 567 382 Z" opacity="0.2"/></g><g transform="translate(-425,-15) scale(1,1)"><path fill="#ffffff" stroke="none" d="M 560 375 L 648.67724609375 375 Q 658.67724609375 375 658.67724609375 385 L 658.67724609375 405 Q 658.67724609375 415 648.67724609375 415 L 560 415 Q 550 415 550 405 L 550 385 Q 550 375 560 375 Z"/></g><g transform="translate(-425,-15) scale(1,1)"><path fill="none" stroke="#000000" d="M 560 375 L 648.67724609375 375 Q 658.67724609375 375 658.67724609375 385 L 658.67724609375 405 Q 658.67724609375 415 648.67724609375 415 L 560 415 Q 550 415 550 405 L 550 385 Q 550 375 560 375 Z" stroke-miterlimit="10"/></g><g transform="translate(-425,-15) scale(1,1)"><g><path fill="none" stroke="none"/><text fill="#000000" stroke="none" font-family="Arial" font-size="13px" font-style="normal" font-weight="bold" text-decoration="none" x="558.445068359375" y="394.5">Åpne redigering</text></g></g><g transform="translate(-425,-15) scale(1,1)"><path fill="none" stroke="#000000" d="M 604 415 L 604 455" stroke-miterlimit="10"/></g><g transform="translate(-425,-15) scale(1,1)"><path fill="none" stroke="#000000" d="M 599.790482243984 444.83732514237585 L 604 455 L 608.209517756016 444.83732514237585" stroke-miterlimit="10"/></g><g transform="translate(-425,-15) scale(1,1)"><path fill="none" stroke="#000000" d="M 474 415 L 474 435 L 590 435 L 590 455" stroke-miterlimit="10"/></g><g transform="translate(-425,-15) scale(1,1)"><path fill="none" stroke="#000000" d="M 585.790482243984 444.83732514237585 L 590 455 L 594.209517756016 444.83732514237585" stroke-miterlimit="10"/></g><g transform="translate(-425,-15) scale(1,1)"><path fill="none" stroke="#000000" d="M 729 350 L 729 425 L 615 425 L 615 455" stroke-miterlimit="10"/></g><g transform="translate(-425,-15) scale(1,1)"><path fill="none" stroke="#000000" d="M 610.790482243984 444.83732514237585 L 615 455 L 619.209517756016 444.83732514237585" stroke-miterlimit="10"/></g><g transform="translate(-425,-15) scale(1,1)"><path fill="#C0C0C0" stroke="none" d="M 597 509.5 C 597 502.59644 602.59644 497 609.5 497 C 616.40356 497 622 502.59644 622 509.5 C 622 516.40356 616.40356 522 609.5 522 C 602.59644 522 597 516.40356 597 509.5 Z" opacity="0.2"/></g><g transform="translate(-425,-15) scale(1,1)"><path fill="none" stroke="#000000" d="M 590 502.5 C 590 495.59644 595.59644 490 602.5 490 C 609.40356 490 615 495.59644 615 502.5 C 615 509.40356 609.40356 515 602.5 515 C 595.59644 515 590 509.40356 590 502.5 Z" stroke-miterlimit="10"/></g><g transform="translate(-425,-15) scale(1,1)"><path fill="#000000" stroke="none" d="M 595 502.5 C 595 498.357864 598.357864 495 602.5 495 C 606.642136 495 610 498.357864 610 502.5 C 610 506.642136 606.642136 510 602.5 510 C 598.357864 510 595 506.642136 595 502.5 Z"/></g><g transform="translate(-425,-15) scale(1,1)"><path fill="none" stroke="#000000" d="M 604 460 L 604 490" stroke-miterlimit="10"/></g><g transform="translate(-425,-15) scale(1,1)"><path fill="none" stroke="#000000" d="M 599.790482243984 479.83732514237585 L 604 490 L 608.209517756016 479.83732514237585" stroke-miterlimit="10"/></g><g transform="translate(-425,-15) scale(1,1)"><path fill="none" stroke="#000000" d="M 605 350 L 605 375" stroke-miterlimit="10"/></g><g transform="translate(-425,-15) scale(1,1)"><path fill="none" stroke="#000000" d="M 600.790482243984 364.83732514237585 L 605 375 L 609.209517756016 364.83732514237585" stroke-miterlimit="10"/></g><g transform="translate(-425,-15) scale(1,1)"><path fill="none" stroke="#000000" d="M 475 350 L 475 375" stroke-miterlimit="10"/></g><g transform="translate(-425,-15) scale(1,1)"><path fill="none" stroke="#000000" d="M 470.790482243984 364.83732514237585 L 475 375 L 479.209517756016 364.83732514237585" stroke-miterlimit="10"/></g><g transform="translate(-425,-15) scale(1,1)"><path fill="#C0C0C0" stroke="none" d="M 580 462 L 643 462 Q 646 462 646 465 L 646 464 Q 646 467 643 467 L 580 467 Q 577 467 577 464 L 577 465 Q 577 462 580 462 Z" opacity="0.2"/></g><g transform="translate(-425,-15) scale(1,1)"><path fill="#000000" stroke="none" d="M 573 455 L 636 455 Q 639 455 639 458 L 639 458 Q 639 461 636 461 L 573 461 Q 570 461 570 458 L 570 458 Q 570 455 573 455 Z"/></g><g transform="translate(-425,-15) scale(1,1)"><path fill="#C0C0C0" stroke="none" d="M 785 343 L 902.349609375 343 Q 912.349609375 343 912.349609375 353 L 912.349609375 373 Q 912.349609375 383 902.349609375 383 L 785 383 Q 775 383 775 373 L 775 353 Q 775 343 785 343 Z" opacity="0.2"/></g><g transform="translate(-425,-15) scale(1,1)"><path fill="#ffffff" stroke="none" d="M 778 336 L 895.349609375 336 Q 905.349609375 336 905.349609375 346 L 905.349609375 366 Q 905.349609375 376 895.349609375 376 L 778 376 Q 768 376 768 366 L 768 346 Q 768 336 778 336 Z"/></g><g transform="translate(-425,-15) scale(1,1)"><path fill="none" stroke="#000000" d="M 778 336 L 895.349609375 336 Q 905.349609375 336 905.349609375 346 L 905.349609375 366 Q 905.349609375 376 895.349609375 376 L 778 376 Q 768 376 768 366 L 768 346 Q 768 336 778 336 Z" stroke-miterlimit="10"/></g><g transform="translate(-425,-15) scale(1,1)"><g><path fill="none" stroke="none"/><text fill="#000000" stroke="none" font-family="Arial" font-size="13px" font-style="normal" font-weight="bold" text-decoration="none" x="806.323486328125" y="355.5">Se Tokens</text></g></g><g transform="translate(-425,-15) scale(1,1)"><path fill="none" stroke="#000000" d="M 628 250 L 628 272 L 844 272 L 844 336" stroke-miterlimit="10"/></g><g transform="translate(-425,-15) scale(1,1)"><path fill="none" stroke="#000000" d="M 839.790482243984 325.83732514237585 L 844 336 L 848.209517756016 325.83732514237585" stroke-miterlimit="10"/></g><g transform="translate(-425,-15) scale(1,1)"><path fill="#ffd8d8" stroke="none" d="M 676 208 L 734 208 L 744 218 L 744 246 L 676 246 L 676 208"/></g><g transform="translate(-425,-15) scale(1,1)"><path fill="none" stroke="#000000" d="M 676 208 L 734 208 L 744 218 L 744 246 L 676 246 L 676 208 L 676 208" stroke-miterlimit="10"/></g><g transform="translate(-425,-15) scale(1,1)"><path fill="none" stroke="#000000" d="M 734 208 L 734 218 L 744 218 L 734 208" stroke-miterlimit="10"/></g><g transform="translate(-425,-15) scale(1,1)"><g><path fill="none" stroke="none"/><text fill="#000000" stroke="none" font-family="Arial" font-size="13px" font-style="normal" font-weight="normal" text-decoration="none" x="681" y="226">Brukers</text><text fill="#000000" stroke="none" font-family="Arial" font-size="13px" font-style="normal" font-weight="normal" text-decoration="none" x="681" y="239">valg</text></g></g><g transform="translate(-425,-15) scale(1,1)"><path fill="none" stroke="#000000" d="M 675 234 L 620 244" stroke-miterlimit="10" stroke-dasharray="3"/></g><g transform="translate(-425,-15) scale(1,1)"><path fill="#C0C0C0" stroke="none" d="M 572 167 L 653.244140625 167 Q 663.244140625 167 663.244140625 177 L 663.244140625 197 Q 663.244140625 207 653.244140625 207 L 572 207 Q 562 207 562 197 L 562 177 Q 562 167 572 167 Z" opacity="0.2"/></g><g transform="translate(-425,-15) scale(1,1)"><path fill="#ffffff" stroke="none" d="M 565 160 L 646.244140625 160 Q 656.244140625 160 656.244140625 170 L 656.244140625 190 Q 656.244140625 200 646.244140625 200 L 565 200 Q 555 200 555 190 L 555 170 Q 555 160 565 160 Z"/></g><g transform="translate(-425,-15) scale(1,1)"><path fill="none" stroke="#000000" d="M 565 160 L 646.244140625 160 Q 656.244140625 160 656.244140625 170 L 656.244140625 190 Q 656.244140625 200 646.244140625 200 L 565 200 Q 555 200 555 190 L 555 170 Q 555 160 565 160 Z" stroke-miterlimit="10"/></g><g transform="translate(-425,-15) scale(1,1)"><g><path fill="none" stroke="none"/><text fill="#000000" stroke="none" font-family="Arial" font-size="13px" font-style="normal" font-weight="bold" text-decoration="none" x="563.108642578125" y="179.5">Vis token verdi</text></g></g><g transform="translate(-425,-15) scale(1,1)"><path fill="none" stroke="#000000" d="M 605 200 L 605 245" stroke-miterlimit="10"/></g><g transform="translate(-425,-15) scale(1,1)"><path fill="none" stroke="#000000" d="M 600.790482243984 234.83732514237585 L 605 245 L 609.209517756016 234.83732514237585" stroke-miterlimit="10"/></g><g transform="translate(-425,-15) scale(1,1)"><path fill="none" stroke="#000000" d="M 836 376 L 836 436 L 632 436 L 632 455" stroke-miterlimit="10"/></g><g transform="translate(-425,-15) scale(1,1)"><path fill="none" stroke="#000000" d="M 627.790482243984 444.83732514237585 L 632 455 L 636.209517756016 444.83732514237585" stroke-miterlimit="10"/></g></g></svg>