<svg version="1.1" xmlns="http://www.w3.org/2000/svg" xmlns:xlink="http://www.w3.org/1999/xlink" width="524" height="435"><defs/><g><text fill="#eeeeee" stroke="none" font-family="Arial" font-size="24px" font-style="normal" font-weight="normal" text-decoration="none" x="0" y="0">UNREGISTERED</text><text fill="#eeeeee" stroke="none" font-family="Arial" font-size="24px" font-style="normal" font-weight="normal" text-decoration="none" x="0" y="30">UNREGISTERED</text><text fill="#eeeeee" stroke="none" font-family="Arial" font-size="24px" font-style="normal" font-weight="normal" text-decoration="none" x="0" y="60">UNREGISTERED</text><text fill="#eeeeee" stroke="none" font-family="Arial" font-size="24px" font-style="normal" font-weight="normal" text-decoration="none" x="0" y="90">UNREGISTERED</text><text fill="#eeeeee" stroke="none" font-family="Arial" font-size="24px" font-style="normal" font-weight="normal" text-decoration="none" x="0" y="120">UNREGISTERED</text><text fill="#eeeeee" stroke="none" font-family="Arial" font-size="24px" font-style="normal" font-weight="normal" text-decoration="none" x="0" y="150">UNREGISTERED</text><text fill="#eeeeee" stroke="none" font-family="Arial" font-size="24px" font-style="normal" font-weight="normal" text-decoration="none" x="0" y="180">UNREGISTERED</text><text fill="#eeeeee" stroke="none" font-family="Arial" font-size="24px" font-style="normal" font-weight="normal" text-decoration="none" x="0" y="210">UNREGISTERED</text><text fill="#eeeeee" stroke="none" font-family="Arial" font-size="24px" font-style="normal" font-weight="normal" text-decoration="none" x="0" y="240">UNREGISTERED</text><text fill="#eeeeee" stroke="none" font-family="Arial" font-size="24px" font-style="normal" font-weight="normal" text-decoration="none" x="0" y="270">UNREGISTERED</text><text fill="#eeeeee" stroke="none" font-family="Arial" font-size="24px" font-style="normal" font-weight="normal" text-decoration="none" x="0" y="300">UNREGISTERED</text><text fill="#eeeeee" stroke="none" font-family="Arial" font-size="24px" font-style="normal" font-weight="normal" text-decoration="none" x="0" y="330">UNREGISTERED</text><text fill="#eeeeee" stroke="none" font-family="Arial" font-size="24px" font-style="normal" font-weight="normal" text-decoration="none" x="0" y="360">UNREGISTERED</text><text fill="#eeeeee" stroke="none" font-family="Arial" font-size="24px" font-style="normal" font-weight="normal" text-decoration="none" x="0" y="390">UNREGISTERED</text><text fill="#eeeeee" stroke="none" font-family="Arial" font-size="24px" font-style="normal" font-weight="normal" text-decoration="none" x="0" y="420">UNREGISTERED</text><text fill="#eeeeee" stroke="none" font-family="Arial" font-size="24px" font-style="normal" font-weight="normal" text-decoration="none" x="200" y="0">UNREGISTERED</text><text fill="#eeeeee" stroke="none" font-family="Arial" font-size="24px" font-style="normal" font-weight="normal" text-decoration="none" x="200" y="30">UNREGISTERED</text><text fill="#eeeeee" stroke="none" font-family="Arial" font-size="24px" font-style="normal" font-weight="normal" text-decoration="none" x="200" y="60">UNREGISTERED</text><text fill="#eeeeee" stroke="none" font-family="Arial" font-size="24px" font-style="normal" font-weight="normal" text-decoration="none" x="200" y="90">UNREGISTERED</text><text fill="#eeeeee" stroke="none" font-family="Arial" font-size="24px" font-style="normal" font-weight="normal" text-decoration="none" x="200" y="120">UNREGISTERED</text><text fill="#eeeeee" stroke="none" font-family="Arial" font-size="24px" font-style="normal" font-weight="normal" text-decoration="none" x="200" y="150">UNREGISTERED</text><text fill="#eeeeee" stroke="none" font-family="Arial" font-size="24px" font-style="normal" font-weight="normal" text-decoration="none" x="200" y="180">UNREGISTERED</text><text fill="#eeeeee" stroke="none" font-family="Arial" font-size="24px" font-style="normal" font-weight="normal" text-decoration="none" x="200" y="210">UNREGISTERED</text><text fill="#eeeeee" stroke="none" font-family="Arial" font-size="24px" font-style="normal" font-weight="normal" text-decoration="none" x="200" y="240">UNREGISTERED</text><text fill="#eeeeee" stroke="none" font-family="Arial" font-size="24px" font-style="normal" font-weight="normal" text-decoration="none" x="200" y="270">UNREGISTERED</text><text fill="#eeeeee" stroke="none" font-family="Arial" font-size="24px" font-style="normal" font-weight="normal" text-decoration="none" x="200" y="300">UNREGISTERED</text><text fill="#eeeeee" stroke="none" font-family="Arial" font-size="24px" font-style="normal" font-weight="normal" text-decoration="none" x="200" y="330">UNREGISTERED</text><text fill="#eeeeee" stroke="none" font-family="Arial" font-size="24px" font-style="normal" font-weight="normal" text-decoration="none" x="200" y="360">UNREGISTERED</text><text fill="#eeeeee" stroke="none" font-family="Arial" font-size="24px" font-style="normal" font-weight="normal" text-decoration="none" x="200" y="390">UNREGISTERED</text><text fill="#eeeeee" stroke="none" font-family="Arial" font-size="24px" font-style="normal" font-weight="normal" text-decoration="none" x="200" y="420">UNREGISTERED</text><text fill="#eeeeee" stroke="none" font-family="Arial" font-size="24px" font-style="normal" font-weight="normal" text-decoration="none" x="400" y="0">UNREGISTERED</text><text fill="#eeeeee" stroke="none" font-family="Arial" font-size="24px" font-style="normal" font-weight="normal" text-decoration="none" x="400" y="30">UNREGISTERED</text><text fill="#eeeeee" stroke="none" font-family="Arial" font-size="24px" font-style="normal" font-weight="normal" text-decoration="none" x="400" y="60">UNREGISTERED</text><text fill="#eeeeee" stroke="none" font-family="Arial" font-size="24px" font-style="normal" font-weight="normal" text-decoration="none" x="400" y="90">UNREGISTERED</text><text fill="#eeeeee" stroke="none" font-family="Arial" font-size="24px" font-style="normal" font-weight="normal" text-decoration="none" x="400" y="120">UNREGISTERED</text><text fill="#eeeeee" stroke="none" font-family="Arial" font-size="24px" font-style="normal" font-weight="normal" text-decoration="none" x="400" y="150">UNREGISTERED</text><text fill="#eeeeee" stroke="none" font-family="Arial" font-size="24px" font-style="normal" font-weight="normal" text-decoration="none" x="400" y="180">UNREGISTERED</text><text fill="#eeeeee" stroke="none" font-family="Arial" font-size="24px" font-style="normal" font-weight="normal" text-decoration="none" x="400" y="210">UNREGISTERED</text><text fill="#eeeeee" stroke="none" font-family="Arial" font-size="24px" font-style="normal" font-weight="normal" text-decoration="none" x="400" y="240">UNREGISTERED</text><text fill="#eeeeee" stroke="none" font-family="Arial" font-size="24px" font-style="normal" font-weight="normal" text-decoration="none" x="400" y="270">UNREGISTERED</text><text fill="#eeeeee" stroke="none" font-family="Arial" font-size="24px" font-style="normal" font-weight="normal" text-decoration="none" x="400" y="300">UNREGISTERED</text><text fill="#eeeeee" stroke="none" font-family="Arial" font-size="24px" font-style="normal" font-weight="normal" text-decoration="none" x="400" y="330">UNREGISTERED</text><text fill="#eeeeee" stroke="none" font-family="Arial" font-size="24px" font-style="normal" font-weight="normal" text-decoration="none" x="400" y="360">UNREGISTERED</text><text fill="#eeeeee" stroke="none" font-family="Arial" font-size="24px" font-style="normal" font-weight="normal" text-decoration="none" x="400" y="390">UNREGISTERED</text><text fill="#eeeeee" stroke="none" font-family="Arial" font-size="24px" font-style="normal" font-weight="normal" text-decoration="none" x="400" y="420">UNREGISTERED</text><g transform="translate(-200,-132) scale(1,1)"><rect fill="#C0C0C0" stroke="none" x="217" y="219" width="201.60000000000002" height="15" opacity="0.2"/></g><g transform="translate(-200,-132) scale(1,1)"><rect fill="#C0C0C0" stroke="none" x="217" y="233" width="504" height="331" opacity="0.2"/></g><g transform="translate(-200,-132) scale(1,1)"><rect fill="#ffffff" stroke="none" x="210" y="227" width="504" height="330"/></g><g transform="translate(-200,-132) scale(1,1)"><path fill="none" stroke="#000000" d="M 210 227 L 714 227 L 714 557 L 210 557 L 210 227 Z Z" stroke-miterlimit="10"/></g><g transform="translate(-200,-132) scale(1,1)"><rect fill="#ffffff" stroke="none" x="210" y="212" width="201.60000000000002" height="15"/></g><g transform="translate(-200,-132) scale(1,1)"><path fill="none" stroke="#000000" d="M 210 212 L 411.6 212 L 411.6 227 L 210 227 L 210 212 Z Z" stroke-miterlimit="10"/></g><g transform="translate(-200,-132) scale(1,1)"><rect fill="#ffffff" stroke="none" x="210" y="226" width="504" height="331"/></g><g transform="translate(-200,-132) scale(1,1)"><path fill="none" stroke="#000000" d="M 210 226 L 714 226 L 714 557 L 210 557 L 210 226 Z Z" stroke-miterlimit="10"/></g><g transform="translate(-200,-132) scale(1,1)"><g><path fill="none" stroke="none"/><text fill="#000000" stroke="none" font-family="Arial" font-size="13px" font-style="normal" font-weight="bold" text-decoration="none" x="419.727783203125" y="246.5">Casino Royale</text></g></g><g transform="translate(-200,-132) scale(1,1)"><rect fill="#C0C0C0" stroke="none" x="523" y="383" width="54.39999999999998" height="15" opacity="0.2"/></g><g transform="translate(-200,-132) scale(1,1)"><rect fill="#C0C0C0" stroke="none" x="523" y="397" width="136" height="101" opacity="0.2"/></g><g transform="translate(-200,-132) scale(1,1)"><rect fill="#ffffff" stroke="none" x="516" y="391" width="136" height="100"/></g><g transform="translate(-200,-132) scale(1,1)"><path fill="none" stroke="#000000" d="M 516 391 L 652 391 L 652 491 L 516 491 L 516 391 Z Z" stroke-miterlimit="10"/></g><g transform="translate(-200,-132) scale(1,1)"><rect fill="#ffffff" stroke="none" x="516" y="376" width="54.39999999999998" height="15"/></g><g transform="translate(-200,-132) scale(1,1)"><path fill="none" stroke="#000000" d="M 516 376 L 570.4 376 L 570.4 391 L 516 391 L 516 376 Z Z" stroke-miterlimit="10"/></g><g transform="translate(-200,-132) scale(1,1)"><rect fill="#ffffff" stroke="none" x="516" y="390" width="136" height="101"/></g><g transform="translate(-200,-132) scale(1,1)"><path fill="none" stroke="#000000" d="M 516 390 L 652 390 L 652 491 L 516 491 L 516 390 Z Z" stroke-miterlimit="10"/></g><g transform="translate(-200,-132) scale(1,1)"><g><path fill="none" stroke="none"/><text fill="#000000" stroke="none" font-family="Arial" font-size="13px" font-style="normal" font-weight="bold" text-decoration="none" x="563.049560546875" y="410.5">Games</text></g></g><g transform="translate(-200,-132) scale(1,1)"><rect fill="#C0C0C0" stroke="none" x="272" y="439" width="52.72578125000001" height="15" opacity="0.2"/></g><g transform="translate(-200,-132) scale(1,1)"><rect fill="#C0C0C0" stroke="none" x="272" y="453" width="131.814453125" height="40" opacity="0.2"/></g><g transform="translate(-200,-132) scale(1,1)"><rect fill="#ffffff" stroke="none" x="265" y="447" width="131.814453125" height="39"/></g><g transform="translate(-200,-132) scale(1,1)"><path fill="none" stroke="#000000" d="M 265 447 L 396.814453125 447 L 396.814453125 486 L 265 486 L 265 447 Z Z" stroke-miterlimit="10"/></g><g transform="translate(-200,-132) scale(1,1)"><rect fill="#ffffff" stroke="none" x="265" y="432" width="52.72578125000001" height="15"/></g><g transform="translate(-200,-132) scale(1,1)"><path fill="none" stroke="#000000" d="M 265 432 L 317.72578125 432 L 317.72578125 447 L 265 447 L 265 432 Z Z" stroke-miterlimit="10"/></g><g transform="translate(-200,-132) scale(1,1)"><rect fill="#ffffff" stroke="none" x="265" y="446" width="131.814453125" height="40"/></g><g transform="translate(-200,-132) scale(1,1)"><path fill="none" stroke="#000000" d="M 265 446 L 396.814453125 446 L 396.814453125 486 L 265 486 L 265 446 Z Z" stroke-miterlimit="10"/></g><g transform="translate(-200,-132) scale(1,1)"><path fill="none" stroke="#000000" d="M 309.72578125 435 L 309.72578125 439" stroke-miterlimit="10"/></g><g transform="translate(-200,-132) scale(1,1)"><path fill="none" stroke="#000000" d="M 306.72578125 443 L 306.72578125 439 L 312.72578125 439" stroke-miterlimit="10"/></g><g transform="translate(-200,-132) scale(1,1)"><path fill="none" stroke="#000000" d="M 312.72578125 443 L 312.72578125 439 L 306.72578125 439" stroke-miterlimit="10"/></g><g transform="translate(-200,-132) scale(1,1)"><g><path fill="none" stroke="none"/><text fill="#000000" stroke="none" font-family="Arial" font-size="13px" font-style="normal" font-weight="bold" text-decoration="none" x="278.523193359375" y="466.5">RoyaleSubsystem</text></g></g><g transform="translate(-200,-132) scale(1,1)"><g><path fill="none" stroke="none"/><text fill="#000000" stroke="none" font-family="Arial" font-size="13px" font-style="normal" font-weight="normal" text-decoration="none" x="269.5" y="481.5">(from Casino Royale)</text></g></g><g transform="translate(-200,-132) scale(1,1)"><rect fill="#C0C0C0" stroke="none" x="427" y="277" width="54.751953125" height="15" opacity="0.2"/></g><g transform="translate(-200,-132) scale(1,1)"><rect fill="#C0C0C0" stroke="none" x="427" y="291" width="136.8798828125" height="40" opacity="0.2"/></g><g transform="translate(-200,-132) scale(1,1)"><rect fill="#ffffff" stroke="none" x="420" y="285" width="136.8798828125" height="39"/></g><g transform="translate(-200,-132) scale(1,1)"><path fill="none" stroke="#000000" d="M 420 285 L 556.8798828125 285 L 556.8798828125 324 L 420 324 L 420 285 Z Z" stroke-miterlimit="10"/></g><g transform="translate(-200,-132) scale(1,1)"><rect fill="#ffffff" stroke="none" x="420" y="270" width="54.751953125" height="15"/></g><g transform="translate(-200,-132) scale(1,1)"><path fill="none" stroke="#000000" d="M 420 270 L 474.751953125 270 L 474.751953125 285 L 420 285 L 420 270 Z Z" stroke-miterlimit="10"/></g><g transform="translate(-200,-132) scale(1,1)"><rect fill="#ffffff" stroke="none" x="420" y="284" width="136.8798828125" height="40"/></g><g transform="translate(-200,-132) scale(1,1)"><path fill="none" stroke="#000000" d="M 420 284 L 556.8798828125 284 L 556.8798828125 324 L 420 324 L 420 284 Z Z" stroke-miterlimit="10"/></g><g transform="translate(-200,-132) scale(1,1)"><path fill="none" stroke="#000000" d="M 465.751953125 273 L 459.751953125 280 L 471.751953125 280 L 465.751953125 273" stroke-miterlimit="10"/></g><g transform="translate(-200,-132) scale(1,1)"><g><path fill="none" stroke="none"/><text fill="#000000" stroke="none" font-family="Arial" font-size="13px" font-style="normal" font-weight="bold" text-decoration="none" x="474.71630859375" y="304.5">User</text></g></g><g transform="translate(-200,-132) scale(1,1)"><g><path fill="none" stroke="none"/><text fill="#000000" stroke="none" font-family="Arial" font-size="13px" font-style="normal" font-weight="normal" text-decoration="none" x="424.5" y="319.5">(from sessionStorage)</text></g></g><g transform="translate(-200,-132) scale(1,1)"><path fill="none" stroke="#000000" d="M 357 431 L 461 325" stroke-miterlimit="10" stroke-dasharray="3"/></g><g transform="translate(-200,-132) scale(1,1)"><path fill="none" stroke="#000000" d="M 456.8874561292775 335.20230282394044 L 461 325 L 450.877874830558 329.3061098516119" stroke-miterlimit="10"/></g><g transform="translate(-200,-132) scale(1,1)"><g><path fill="none" stroke="none"/><text fill="#000000" stroke="none" font-family="Arial" font-size="13px" font-style="normal" font-weight="normal" text-decoration="none" x="383.5" y="373.5">+API</text></g></g><g transform="translate(-200,-132) scale(1,1)"><rect fill="#C0C0C0" stroke="none" x="242" y="267" width="51.60000000000002" height="15" opacity="0.2"/></g><g transform="translate(-200,-132) scale(1,1)"><rect fill="#C0C0C0" stroke="none" x="242" y="281" width="129" height="65" opacity="0.2"/></g><g transform="translate(-200,-132) scale(1,1)"><rect fill="#ffffff" stroke="none" x="235" y="275" width="129" height="64"/></g><g transform="translate(-200,-132) scale(1,1)"><path fill="none" stroke="#000000" d="M 235 275 L 364 275 L 364 339 L 235 339 L 235 275 Z Z" stroke-miterlimit="10"/></g><g transform="translate(-200,-132) scale(1,1)"><rect fill="#ffffff" stroke="none" x="235" y="260" width="51.60000000000002" height="15"/></g><g transform="translate(-200,-132) scale(1,1)"><path fill="none" stroke="#000000" d="M 235 260 L 286.6 260 L 286.6 275 L 235 275 L 235 260 Z Z" stroke-miterlimit="10"/></g><g transform="translate(-200,-132) scale(1,1)"><rect fill="#ffffff" stroke="none" x="235" y="274" width="129" height="65"/></g><g transform="translate(-200,-132) scale(1,1)"><path fill="none" stroke="#000000" d="M 235 274 L 364 274 L 364 339 L 235 339 L 235 274 Z Z" stroke-miterlimit="10"/></g><g transform="translate(-200,-132) scale(1,1)"><path fill="none" stroke="#000000" d="M 277.6 263 L 271.6 270 L 283.6 270 L 277.6 263" stroke-miterlimit="10"/></g><g transform="translate(-200,-132) scale(1,1)"><g><path fill="none" stroke="none"/><text fill="#000000" stroke="none" font-family="Arial" font-size="13px" font-style="normal" font-weight="bold" text-decoration="none" x="287.575927734375" y="294.5">Hub</text></g></g><g transform="translate(-200,-132) scale(1,1)"><path fill="none" stroke="#000000" d="M 325 431 L 307 340" stroke-miterlimit="10" stroke-dasharray="3"/></g><g transform="translate(-200,-132) scale(1,1)"><path fill="none" stroke="#000000" d="M 313.10149966814845 349.1526882280336 L 307 340 L 304.84248387862647 350.78633970288405" stroke-miterlimit="10"/></g><g transform="translate(-200,-132) scale(1,1)"><g><path fill="none" stroke="none"/><text fill="#000000" stroke="none" font-family="Arial" font-size="13px" font-style="normal" font-weight="normal" text-decoration="none" x="278.5" y="393.5">+API</text></g></g><g transform="translate(-200,-132) scale(1,1)"><rect fill="#C0C0C0" stroke="none" x="437" y="149" width="62" height="15" opacity="0.2"/></g><g transform="translate(-200,-132) scale(1,1)"><rect fill="#C0C0C0" stroke="none" x="437" y="163" width="155" height="36" opacity="0.2"/></g><g transform="translate(-200,-132) scale(1,1)"><rect fill="#ffffff" stroke="none" x="430" y="157" width="155" height="35"/></g><g transform="translate(-200,-132) scale(1,1)"><path fill="none" stroke="#000000" d="M 430 157 L 585 157 L 585 192 L 430 192 L 430 157 Z Z" stroke-miterlimit="10"/></g><g transform="translate(-200,-132) scale(1,1)"><rect fill="#ffffff" stroke="none" x="430" y="142" width="62" height="15"/></g><g transform="translate(-200,-132) scale(1,1)"><path fill="none" stroke="#000000" d="M 430 142 L 492 142 L 492 157 L 430 157 L 430 142 Z Z" stroke-miterlimit="10"/></g><g transform="translate(-200,-132) scale(1,1)"><rect fill="#ffffff" stroke="none" x="430" y="156" width="155" height="36"/></g><g transform="translate(-200,-132) scale(1,1)"><path fill="none" stroke="#000000" d="M 430 156 L 585 156 L 585 192 L 430 192 L 430 156 Z Z" stroke-miterlimit="10"/></g><g transform="translate(-200,-132) scale(1,1)"><g><path fill="none" stroke="none"/><text fill="#000000" stroke="none" font-family="Arial" font-size="13px" font-style="normal" font-weight="bold" text-decoration="none" x="462.695068359375" y="176.5">sessionStorage</text></g></g><g transform="translate(-200,-132) scale(1,1)"><path fill="none" stroke="#000000" d="M 557 305 L 615 305 L 615 180 L 585 180" stroke-miterlimit="10"/></g><g transform="translate(-200,-132) scale(1,1)"><path fill="#FFFFFF" stroke="none" d="M 585 180 C 585 176.1340064 588.1340064 173 592 173 C 595.8659936 173 599 176.1340064 599 180 C 599 183.8659936 595.8659936 187 592 187 C 588.1340064 187 585 183.8659936 585 180 Z"/></g><g transform="translate(-200,-132) scale(1,1)"><path fill="none" stroke="#000000" d="M 585 180 C 585 176.1340064 588.1340064 173 592 173 C 595.8659936 173 599 176.1340064 599 180 C 599 183.8659936 595.8659936 187 592 187 C 588.1340064 187 585 183.8659936 585 180 Z" stroke-miterlimit="10"/></g><g transform="translate(-200,-132) scale(1,1)"><path fill="none" stroke="#000000" d="M 599 180 L 585 180" stroke-miterlimit="10"/></g><g transform="translate(-200,-132) scale(1,1)"><path fill="none" stroke="#000000" d="M 592 173 L 592 187" stroke-miterlimit="10"/></g><g transform="translate(-200,-132) scale(1,1)"><path fill="none" stroke="#000000" d="M 398 453 L 531 443" stroke-miterlimit="10" stroke-dasharray="3"/></g><g transform="translate(-200,-132) scale(1,1)"><path fill="none" stroke="#000000" d="M 521.1815441224587 447.9596294398649 L 531 443 L 520.5503156591087 439.5642908773105" stroke-miterlimit="10"/></g><g transform="translate(-200,-132) scale(1,1)"><g><path fill="none" stroke="none"/><text fill="#000000" stroke="none" font-family="Arial" font-size="13px" font-style="normal" font-weight="normal" text-decoration="none" x="447.5" y="439.5">+API</text></g></g><g transform="translate(-200,-132) scale(1,1)"><rect fill="#C0C0C0" stroke="none" x="539" y="419" width="35.66835937500002" height="15" opacity="0.2"/></g><g transform="translate(-200,-132) scale(1,1)"><rect fill="#C0C0C0" stroke="none" x="539" y="433" width="89.1708984375" height="40" opacity="0.2"/></g><g transform="translate(-200,-132) scale(1,1)"><rect fill="#ffffff" stroke="none" x="532" y="427" width="89.1708984375" height="39"/></g><g transform="translate(-200,-132) scale(1,1)"><path fill="none" stroke="#000000" d="M 532 427 L 621.1708984375 427 L 621.1708984375 466 L 532 466 L 532 427 Z Z" stroke-miterlimit="10"/></g><g transform="translate(-200,-132) scale(1,1)"><rect fill="#ffffff" stroke="none" x="532" y="412" width="35.66835937500002" height="15"/></g><g transform="translate(-200,-132) scale(1,1)"><path fill="none" stroke="#000000" d="M 532 412 L 567.668359375 412 L 567.668359375 427 L 532 427 L 532 412 Z Z" stroke-miterlimit="10"/></g><g transform="translate(-200,-132) scale(1,1)"><rect fill="#ffffff" stroke="none" x="532" y="426" width="89.1708984375" height="40"/></g><g transform="translate(-200,-132) scale(1,1)"><path fill="none" stroke="#000000" d="M 532 426 L 621.1708984375 426 L 621.1708984375 466 L 532 466 L 532 426 Z Z" stroke-miterlimit="10"/></g><g transform="translate(-200,-132) scale(1,1)"><path fill="none" stroke="#000000" d="M 558.668359375 415 L 552.668359375 422 L 564.668359375 422 L 558.668359375 415" stroke-miterlimit="10"/></g><g transform="translate(-200,-132) scale(1,1)"><g><path fill="none" stroke="none"/><text fill="#000000" stroke="none" font-family="Arial" font-size="13px" font-style="normal" font-weight="bold" text-decoration="none" x="549.1318359375" y="446.5">Blackjack</text></g></g><g transform="translate(-200,-132) scale(1,1)"><g><path fill="none" stroke="none"/><text fill="#000000" stroke="none" font-family="Arial" font-size="13px" font-style="normal" font-weight="normal" text-decoration="none" x="536.5" y="461.5">(from Games)</text></g></g></g></svg>